<svg width="153" height="24" viewBox="0 0 153 24" fill="none" xmlns="http://www.w3.org/2000/svg">
<circle cx="6" cy="12" r="4.5" fill="#E1FCAD" stroke="#1A332B" stroke-width="3"/>
<path d="M19.8864 18H18.4091L22.6818 6.36364H24.1364L28.4091 18H26.9318L23.4545 8.20455H23.3636L19.8864 18ZM20.4318 13.4545H26.3864V14.7045H20.4318V13.4545ZM30.0398 21.2727V9.27273H31.3352V10.6591H31.4943C31.5928 10.5076 31.7292 10.3144 31.9034 10.0795C32.0814 9.84091 32.3352 9.62879 32.6648 9.44318C32.9981 9.25379 33.4489 9.15909 34.017 9.15909C34.7519 9.15909 35.3996 9.3428 35.9602 9.71023C36.5208 10.0777 36.9583 10.5985 37.2727 11.2727C37.5871 11.947 37.7443 12.7424 37.7443 13.6591C37.7443 14.5833 37.5871 15.3845 37.2727 16.0625C36.9583 16.7367 36.5227 17.2595 35.9659 17.6307C35.4091 17.9981 34.767 18.1818 34.0398 18.1818C33.4792 18.1818 33.0303 18.089 32.6932 17.9034C32.3561 17.714 32.0966 17.5 31.9148 17.2614C31.733 17.0189 31.5928 16.8182 31.4943 16.6591H31.3807V21.2727H30.0398ZM31.358 13.6364C31.358 14.2955 31.4545 14.8769 31.6477 15.3807C31.8409 15.8807 32.1231 16.2727 32.4943 16.5568C32.8655 16.8371 33.3201 16.9773 33.858 16.9773C34.4186 16.9773 34.8864 16.8295 35.2614 16.5341C35.6402 16.2348 35.9242 15.8333 36.1136 15.3295C36.3068 14.822 36.4034 14.2576 36.4034 13.6364C36.4034 13.0227 36.3087 12.4697 36.1193 11.9773C35.9337 11.4811 35.6515 11.089 35.2727 10.8011C34.8977 10.5095 34.4261 10.3636 33.858 10.3636C33.3125 10.3636 32.8542 10.5019 32.483 10.7784C32.1117 11.0511 31.8314 11.4337 31.642 11.9261C31.4527 12.4148 31.358 12.9848 31.358 13.6364ZM39.7898 21.2727V9.27273H41.0852V10.6591H41.2443C41.3428 10.5076 41.4792 10.3144 41.6534 10.0795C41.8314 9.84091 42.0852 9.62879 42.4148 9.44318C42.7481 9.25379 43.1989 9.15909 43.767 9.15909C44.5019 9.15909 45.1496 9.3428 45.7102 9.71023C46.2708 10.0777 46.7083 10.5985 47.0227 11.2727C47.3371 11.947 47.4943 12.7424 47.4943 13.6591C47.4943 14.5833 47.3371 15.3845 47.0227 16.0625C46.7083 16.7367 46.2727 17.2595 45.7159 17.6307C45.1591 17.9981 44.517 18.1818 43.7898 18.1818C43.2292 18.1818 42.7803 18.089 42.4432 17.9034C42.1061 17.714 41.8466 17.5 41.6648 17.2614C41.483 17.0189 41.3428 16.8182 41.2443 16.6591H41.1307V21.2727H39.7898ZM41.108 13.6364C41.108 14.2955 41.2045 14.8769 41.3977 15.3807C41.5909 15.8807 41.8731 16.2727 42.2443 16.5568C42.6155 16.8371 43.0701 16.9773 43.608 16.9773C44.1686 16.9773 44.6364 16.8295 45.0114 16.5341C45.3902 16.2348 45.6742 15.8333 45.8636 15.3295C46.0568 14.822 46.1534 14.2576 46.1534 13.6364C46.1534 13.0227 46.0587 12.4697 45.8693 11.9773C45.6837 11.4811 45.4015 11.089 45.0227 10.8011C44.6477 10.5095 44.1761 10.3636 43.608 10.3636C43.0625 10.3636 42.6042 10.5019 42.233 10.7784C41.8617 11.0511 41.5814 11.4337 41.392 11.9261C41.2027 12.4148 41.108 12.9848 41.108 13.6364ZM50.8807 6.36364V18H49.5398V6.36364H50.8807ZM53.3366 18V9.27273H54.6776V18H53.3366ZM54.0185 7.81818C53.7571 7.81818 53.5317 7.72917 53.3423 7.55114C53.1567 7.37311 53.0639 7.15909 53.0639 6.90909C53.0639 6.65909 53.1567 6.44508 53.3423 6.26705C53.5317 6.08902 53.7571 6 54.0185 6C54.2798 6 54.5033 6.08902 54.6889 6.26705C54.8783 6.44508 54.973 6.65909 54.973 6.90909C54.973 7.15909 54.8783 7.37311 54.6889 7.55114C54.5033 7.72917 54.2798 7.81818 54.0185 7.81818ZM60.679 18.1818C59.8608 18.1818 59.1563 17.9886 58.5653 17.6023C57.9744 17.2159 57.5199 16.6837 57.2017 16.0057C56.8835 15.3277 56.7244 14.553 56.7244 13.6818C56.7244 12.7955 56.8873 12.0133 57.2131 11.3352C57.5426 10.6534 58.0009 10.1212 58.5881 9.73864C59.179 9.35227 59.8684 9.15909 60.6562 9.15909C61.2699 9.15909 61.8229 9.27273 62.3153 9.5C62.8078 9.72727 63.2112 10.0455 63.5256 10.4545C63.84 10.8636 64.035 11.3409 64.1108 11.8864H62.7699C62.6676 11.4886 62.4403 11.1364 62.0881 10.8295C61.7396 10.5189 61.2699 10.3636 60.679 10.3636C60.1563 10.3636 59.6979 10.5 59.304 10.7727C58.9138 11.0417 58.6089 11.4223 58.3892 11.9148C58.1733 12.4034 58.0653 12.9773 58.0653 13.6364C58.0653 14.3106 58.1714 14.8977 58.3835 15.3977C58.5994 15.8977 58.9025 16.286 59.2926 16.5625C59.6866 16.839 60.1487 16.9773 60.679 16.9773C61.0275 16.9773 61.3438 16.9167 61.6278 16.7955C61.9119 16.6742 62.1525 16.5 62.3494 16.2727C62.5464 16.0455 62.6866 15.7727 62.7699 15.4545H64.1108C64.035 15.9697 63.8475 16.4337 63.5483 16.8466C63.2528 17.2557 62.8608 17.5814 62.3722 17.8239C61.8873 18.0625 61.3229 18.1818 60.679 18.1818ZM68.6392 18.2045C68.0862 18.2045 67.5843 18.1004 67.1335 17.892C66.6828 17.6799 66.3248 17.375 66.0597 16.9773C65.7945 16.5758 65.6619 16.0909 65.6619 15.5227C65.6619 15.0227 65.7604 14.6174 65.9574 14.3068C66.1544 13.9924 66.4176 13.7462 66.7472 13.5682C67.0767 13.3902 67.4403 13.2576 67.8381 13.1705C68.2396 13.0795 68.643 13.0076 69.0483 12.9545C69.5786 12.8864 70.0085 12.8352 70.3381 12.8011C70.6714 12.7633 70.9138 12.7008 71.0653 12.6136C71.2206 12.5265 71.2983 12.375 71.2983 12.1591V12.1136C71.2983 11.553 71.1449 11.1174 70.8381 10.8068C70.535 10.4962 70.0748 10.3409 69.4574 10.3409C68.8172 10.3409 68.3153 10.4811 67.9517 10.7614C67.5881 11.0417 67.3324 11.3409 67.1847 11.6591L65.9119 11.2045C66.1392 10.6742 66.4422 10.2614 66.821 9.96591C67.2036 9.66667 67.6203 9.45833 68.071 9.34091C68.5256 9.2197 68.9725 9.15909 69.4119 9.15909C69.6922 9.15909 70.0142 9.19318 70.3778 9.26136C70.7453 9.32576 71.0994 9.46023 71.4403 9.66477C71.785 9.86932 72.071 10.178 72.2983 10.5909C72.5256 11.0038 72.6392 11.5568 72.6392 12.25V18H71.2983V16.8182H71.2301C71.1392 17.0076 70.9877 17.2102 70.7756 17.4261C70.5634 17.642 70.2813 17.8258 69.929 17.9773C69.5767 18.1288 69.1468 18.2045 68.6392 18.2045ZM68.8438 17C69.3741 17 69.821 16.8958 70.1847 16.6875C70.5521 16.4792 70.8286 16.2102 71.0142 15.8807C71.2036 15.5511 71.2983 15.2045 71.2983 14.8409V13.6136C71.2415 13.6818 71.1165 13.7443 70.9233 13.8011C70.7339 13.8542 70.5142 13.9015 70.2642 13.9432C70.018 13.9811 69.7775 14.0152 69.5426 14.0455C69.3116 14.072 69.1241 14.0947 68.9801 14.1136C68.6316 14.1591 68.3059 14.233 68.0028 14.3352C67.7036 14.4337 67.4612 14.5833 67.2756 14.7841C67.0938 14.9811 67.0028 15.25 67.0028 15.5909C67.0028 16.0568 67.1752 16.4091 67.5199 16.6477C67.8684 16.8826 68.3097 17 68.8438 17ZM78.8821 9.27273V10.4091H74.3594V9.27273H78.8821ZM75.6776 7.18182H77.0185V15.5C77.0185 15.8788 77.0734 16.1629 77.1832 16.3523C77.2969 16.5379 77.4408 16.6629 77.6151 16.7273C77.7931 16.7879 77.9806 16.8182 78.1776 16.8182C78.3253 16.8182 78.4465 16.8106 78.5412 16.7955C78.6359 16.7765 78.7116 16.7614 78.7685 16.75L79.0412 17.9545C78.9503 17.9886 78.8234 18.0227 78.6605 18.0568C78.4976 18.0947 78.2912 18.1136 78.0412 18.1136C77.6624 18.1136 77.2912 18.0322 76.9276 17.8693C76.5677 17.7064 76.2685 17.4583 76.0298 17.125C75.795 16.7917 75.6776 16.3712 75.6776 15.8636V7.18182ZM80.8991 18V9.27273H82.2401V18H80.8991ZM81.581 7.81818C81.3196 7.81818 81.0942 7.72917 80.9048 7.55114C80.7192 7.37311 80.6264 7.15909 80.6264 6.90909C80.6264 6.65909 80.7192 6.44508 80.9048 6.26705C81.0942 6.08902 81.3196 6 81.581 6C81.8423 6 82.0658 6.08902 82.2514 6.26705C82.4408 6.44508 82.5355 6.65909 82.5355 6.90909C82.5355 7.15909 82.4408 7.37311 82.2514 7.55114C82.0658 7.72917 81.8423 7.81818 81.581 7.81818ZM88.2415 18.1818C87.4536 18.1818 86.7623 17.9943 86.1676 17.6193C85.5767 17.2443 85.1146 16.7197 84.7812 16.0455C84.4517 15.3712 84.2869 14.5833 84.2869 13.6818C84.2869 12.7727 84.4517 11.9792 84.7812 11.3011C85.1146 10.6231 85.5767 10.0966 86.1676 9.72159C86.7623 9.34659 87.4536 9.15909 88.2415 9.15909C89.0294 9.15909 89.7188 9.34659 90.3097 9.72159C90.9044 10.0966 91.3665 10.6231 91.696 11.3011C92.0294 11.9792 92.196 12.7727 92.196 13.6818C92.196 14.5833 92.0294 15.3712 91.696 16.0455C91.3665 16.7197 90.9044 17.2443 90.3097 17.6193C89.7188 17.9943 89.0294 18.1818 88.2415 18.1818ZM88.2415 16.9773C88.84 16.9773 89.3324 16.8239 89.7188 16.517C90.1051 16.2102 90.3911 15.8068 90.5767 15.3068C90.7623 14.8068 90.8551 14.2652 90.8551 13.6818C90.8551 13.0985 90.7623 12.5549 90.5767 12.0511C90.3911 11.5473 90.1051 11.1402 89.7188 10.8295C89.3324 10.5189 88.84 10.3636 88.2415 10.3636C87.643 10.3636 87.1506 10.5189 86.7642 10.8295C86.3778 11.1402 86.0919 11.5473 85.9062 12.0511C85.7206 12.5549 85.6278 13.0985 85.6278 13.6818C85.6278 14.2652 85.7206 14.8068 85.9062 15.3068C86.0919 15.8068 86.3778 16.2102 86.7642 16.517C87.1506 16.8239 87.643 16.9773 88.2415 16.9773ZM95.5838 12.75V18H94.2429V9.27273H95.5384V10.6364H95.652C95.8565 10.1932 96.1671 9.83712 96.5838 9.56818C97.0005 9.29545 97.5384 9.15909 98.1974 9.15909C98.7884 9.15909 99.3054 9.2803 99.7486 9.52273C100.192 9.76136 100.536 10.125 100.783 10.6136C101.029 11.0985 101.152 11.7121 101.152 12.4545V18H99.8111V12.5455C99.8111 11.8598 99.633 11.3258 99.277 10.9432C98.9209 10.5568 98.4323 10.3636 97.8111 10.3636C97.383 10.3636 97.0005 10.4564 96.6634 10.642C96.33 10.8277 96.0668 11.0985 95.8736 11.4545C95.6804 11.8106 95.5838 12.2424 95.5838 12.75ZM109.693 6.36364V18H108.284V6.36364H109.693ZM113.678 12.75V18H112.337V9.27273H113.632V10.6364H113.746C113.95 10.1932 114.261 9.83712 114.678 9.56818C115.094 9.29545 115.632 9.15909 116.291 9.15909C116.882 9.15909 117.399 9.2803 117.842 9.52273C118.286 9.76136 118.63 10.125 118.876 10.6136C119.123 11.0985 119.246 11.7121 119.246 12.4545V18H117.905V12.5455C117.905 11.8598 117.727 11.3258 117.371 10.9432C117.015 10.5568 116.526 10.3636 115.905 10.3636C115.477 10.3636 115.094 10.4564 114.757 10.642C114.424 10.8277 114.161 11.0985 113.967 11.4545C113.774 11.8106 113.678 12.2424 113.678 12.75ZM125.491 9.27273V10.4091H120.969V9.27273H125.491ZM122.287 7.18182H123.628V15.5C123.628 15.8788 123.683 16.1629 123.793 16.3523C123.906 16.5379 124.05 16.6629 124.224 16.7273C124.402 16.7879 124.59 16.8182 124.787 16.8182C124.935 16.8182 125.056 16.8106 125.151 16.7955C125.245 16.7765 125.321 16.7614 125.378 16.75L125.651 17.9545C125.56 17.9886 125.433 18.0227 125.27 18.0568C125.107 18.0947 124.901 18.1136 124.651 18.1136C124.272 18.1136 123.901 18.0322 123.537 17.8693C123.177 17.7064 122.878 17.4583 122.639 17.125C122.404 16.7917 122.287 16.3712 122.287 15.8636V7.18182ZM130.077 18.2045C129.524 18.2045 129.022 18.1004 128.571 17.892C128.12 17.6799 127.762 17.375 127.497 16.9773C127.232 16.5758 127.099 16.0909 127.099 15.5227C127.099 15.0227 127.198 14.6174 127.395 14.3068C127.592 13.9924 127.855 13.7462 128.185 13.5682C128.514 13.3902 128.878 13.2576 129.276 13.1705C129.677 13.0795 130.08 13.0076 130.486 12.9545C131.016 12.8864 131.446 12.8352 131.776 12.8011C132.109 12.7633 132.351 12.7008 132.503 12.6136C132.658 12.5265 132.736 12.375 132.736 12.1591V12.1136C132.736 11.553 132.582 11.1174 132.276 10.8068C131.973 10.4962 131.512 10.3409 130.895 10.3409C130.255 10.3409 129.753 10.4811 129.389 10.7614C129.026 11.0417 128.77 11.3409 128.622 11.6591L127.349 11.2045C127.577 10.6742 127.88 10.2614 128.259 9.96591C128.641 9.66667 129.058 9.45833 129.509 9.34091C129.963 9.2197 130.41 9.15909 130.849 9.15909C131.13 9.15909 131.452 9.19318 131.815 9.26136C132.183 9.32576 132.537 9.46023 132.878 9.66477C133.223 9.86932 133.509 10.178 133.736 10.5909C133.963 11.0038 134.077 11.5568 134.077 12.25V18H132.736V16.8182H132.668C132.577 17.0076 132.425 17.2102 132.213 17.4261C132.001 17.642 131.719 17.8258 131.366 17.9773C131.014 18.1288 130.584 18.2045 130.077 18.2045ZM130.281 17C130.812 17 131.259 16.8958 131.622 16.6875C131.99 16.4792 132.266 16.2102 132.452 15.8807C132.641 15.5511 132.736 15.2045 132.736 14.8409V13.6136C132.679 13.6818 132.554 13.7443 132.361 13.8011C132.171 13.8542 131.952 13.9015 131.702 13.9432C131.455 13.9811 131.215 14.0152 130.98 14.0455C130.749 14.072 130.562 14.0947 130.418 14.1136C130.069 14.1591 129.743 14.233 129.44 14.3352C129.141 14.4337 128.899 14.5833 128.713 14.7841C128.531 14.9811 128.44 15.25 128.44 15.5909C128.44 16.0568 128.613 16.4091 128.957 16.6477C129.306 16.8826 129.747 17 130.281 17ZM137.774 14.8182L137.751 13.1591H138.024L141.842 9.27273H143.501L139.433 13.3864H139.32L137.774 14.8182ZM136.524 18V6.36364H137.865V18H136.524ZM142.07 18L138.661 13.6818L139.615 12.75L143.774 18H142.07ZM148.527 18.1818C147.686 18.1818 146.961 17.9962 146.351 17.625C145.745 17.25 145.277 16.7273 144.947 16.0568C144.622 15.3826 144.459 14.5985 144.459 13.7045C144.459 12.8106 144.622 12.0227 144.947 11.3409C145.277 10.6553 145.735 10.1212 146.322 9.73864C146.913 9.35227 147.603 9.15909 148.391 9.15909C148.845 9.15909 149.294 9.23485 149.737 9.38636C150.18 9.53788 150.584 9.78409 150.947 10.125C151.311 10.4621 151.601 10.9091 151.817 11.4659C152.033 12.0227 152.141 12.7083 152.141 13.5227V14.0909H145.413V12.9318H150.777C150.777 12.4394 150.679 12 150.482 11.6136C150.288 11.2273 150.012 10.9223 149.652 10.6989C149.296 10.4754 148.875 10.3636 148.391 10.3636C147.857 10.3636 147.394 10.4962 147.004 10.7614C146.618 11.0227 146.321 11.3636 146.112 11.7841C145.904 12.2045 145.8 12.6553 145.8 13.1364V13.9091C145.8 14.5682 145.913 15.1269 146.141 15.5852C146.372 16.0398 146.692 16.3864 147.101 16.625C147.51 16.8598 147.985 16.9773 148.527 16.9773C148.879 16.9773 149.197 16.928 149.482 16.8295C149.769 16.7273 150.018 16.5758 150.226 16.375C150.434 16.1705 150.595 15.9167 150.709 15.6136L152.004 15.9773C151.868 16.4167 151.639 16.803 151.317 17.1364C150.995 17.4659 150.597 17.7235 150.124 17.9091C149.65 18.0909 149.118 18.1818 148.527 18.1818Z" fill="#637083"/>
</svg>
