<svg width="114" height="24" viewBox="0 0 114 24" fill="none" xmlns="http://www.w3.org/2000/svg">
<circle cx="6" cy="12" r="4.5" fill="#E1FCAD" stroke="#1A332B" stroke-width="3"/>
<path d="M28.7727 10H27.3636C27.2803 9.5947 27.1345 9.23864 26.9261 8.93182C26.7216 8.625 26.4716 8.36742 26.1761 8.15909C25.8845 7.94697 25.5606 7.78788 25.2045 7.68182C24.8485 7.57576 24.4773 7.52273 24.0909 7.52273C23.3864 7.52273 22.7481 7.70076 22.1761 8.05682C21.608 8.41288 21.1553 8.9375 20.8182 9.63068C20.4848 10.3239 20.3182 11.1742 20.3182 12.1818C20.3182 13.1894 20.4848 14.0398 20.8182 14.733C21.1553 15.4261 21.608 15.9508 22.1761 16.3068C22.7481 16.6629 23.3864 16.8409 24.0909 16.8409C24.4773 16.8409 24.8485 16.7879 25.2045 16.6818C25.5606 16.5758 25.8845 16.4186 26.1761 16.2102C26.4716 15.9981 26.7216 15.7386 26.9261 15.4318C27.1345 15.1212 27.2803 14.7652 27.3636 14.3636H28.7727C28.6667 14.9583 28.4735 15.4905 28.1932 15.9602C27.9129 16.4299 27.5644 16.8295 27.1477 17.1591C26.7311 17.4848 26.2633 17.733 25.7443 17.9034C25.2292 18.0739 24.678 18.1591 24.0909 18.1591C23.0985 18.1591 22.2159 17.9167 21.4432 17.4318C20.6705 16.947 20.0625 16.2576 19.6193 15.3636C19.1761 14.4697 18.9545 13.4091 18.9545 12.1818C18.9545 10.9545 19.1761 9.89394 19.6193 9C20.0625 8.10606 20.6705 7.41667 21.4432 6.93182C22.2159 6.44697 23.0985 6.20455 24.0909 6.20455C24.678 6.20455 25.2292 6.28977 25.7443 6.46023C26.2633 6.63068 26.7311 6.88068 27.1477 7.21023C27.5644 7.53598 27.9129 7.93371 28.1932 8.40341C28.4735 8.86932 28.6667 9.40151 28.7727 10ZM34.4134 18.1818C33.6255 18.1818 32.9342 17.9943 32.3395 17.6193C31.7486 17.2443 31.2865 16.7197 30.9531 16.0455C30.6236 15.3712 30.4588 14.5833 30.4588 13.6818C30.4588 12.7727 30.6236 11.9792 30.9531 11.3011C31.2865 10.6231 31.7486 10.0966 32.3395 9.72159C32.9342 9.34659 33.6255 9.15909 34.4134 9.15909C35.2012 9.15909 35.8906 9.34659 36.4815 9.72159C37.0762 10.0966 37.5384 10.6231 37.8679 11.3011C38.2012 11.9792 38.3679 12.7727 38.3679 13.6818C38.3679 14.5833 38.2012 15.3712 37.8679 16.0455C37.5384 16.7197 37.0762 17.2443 36.4815 17.6193C35.8906 17.9943 35.2012 18.1818 34.4134 18.1818ZM34.4134 16.9773C35.0118 16.9773 35.5043 16.8239 35.8906 16.517C36.277 16.2102 36.563 15.8068 36.7486 15.3068C36.9342 14.8068 37.027 14.2652 37.027 13.6818C37.027 13.0985 36.9342 12.5549 36.7486 12.0511C36.563 11.5473 36.277 11.1402 35.8906 10.8295C35.5043 10.5189 35.0118 10.3636 34.4134 10.3636C33.8149 10.3636 33.3224 10.5189 32.9361 10.8295C32.5497 11.1402 32.2637 11.5473 32.0781 12.0511C31.8925 12.5549 31.7997 13.0985 31.7997 13.6818C31.7997 14.2652 31.8925 14.8068 32.0781 15.3068C32.2637 15.8068 32.5497 16.2102 32.9361 16.517C33.3224 16.8239 33.8149 16.9773 34.4134 16.9773ZM41.7557 12.75V18H40.4148V9.27273H41.7102V10.6364H41.8239C42.0284 10.1932 42.339 9.83712 42.7557 9.56818C43.1723 9.29545 43.7102 9.15909 44.3693 9.15909C44.9602 9.15909 45.4773 9.2803 45.9205 9.52273C46.3636 9.76136 46.7083 10.125 46.9545 10.6136C47.2008 11.0985 47.3239 11.7121 47.3239 12.4545V18H45.983V12.5455C45.983 11.8598 45.8049 11.3258 45.4489 10.9432C45.0928 10.5568 44.6042 10.3636 43.983 10.3636C43.5549 10.3636 43.1723 10.4564 42.8352 10.642C42.5019 10.8277 42.2386 11.0985 42.0455 11.4545C41.8523 11.8106 41.7557 12.2424 41.7557 12.75ZM51.1151 12.75V18H49.7741V9.27273H51.0696V10.6364H51.1832C51.3878 10.1932 51.6984 9.83712 52.1151 9.56818C52.5317 9.29545 53.0696 9.15909 53.7287 9.15909C54.3196 9.15909 54.8366 9.2803 55.2798 9.52273C55.723 9.76136 56.0677 10.125 56.3139 10.6136C56.5601 11.0985 56.6832 11.7121 56.6832 12.4545V18H55.3423V12.5455C55.3423 11.8598 55.1643 11.3258 54.8082 10.9432C54.4522 10.5568 53.9635 10.3636 53.3423 10.3636C52.9143 10.3636 52.5317 10.4564 52.1946 10.642C51.8613 10.8277 51.598 11.0985 51.4048 11.4545C51.2116 11.8106 51.1151 12.2424 51.1151 12.75ZM62.7926 18.1818C61.9517 18.1818 61.2263 17.9962 60.6165 17.625C60.0104 17.25 59.5426 16.7273 59.2131 16.0568C58.8873 15.3826 58.7244 14.5985 58.7244 13.7045C58.7244 12.8106 58.8873 12.0227 59.2131 11.3409C59.5426 10.6553 60.0009 10.1212 60.5881 9.73864C61.179 9.35227 61.8684 9.15909 62.6562 9.15909C63.1108 9.15909 63.5597 9.23485 64.0028 9.38636C64.446 9.53788 64.8494 9.78409 65.2131 10.125C65.5767 10.4621 65.8665 10.9091 66.0824 11.4659C66.2983 12.0227 66.4062 12.7083 66.4062 13.5227V14.0909H59.679V12.9318H65.0426C65.0426 12.4394 64.9441 12 64.7472 11.6136C64.554 11.2273 64.2775 10.9223 63.9176 10.6989C63.5616 10.4754 63.1411 10.3636 62.6562 10.3636C62.1222 10.3636 61.66 10.4962 61.2699 10.7614C60.8835 11.0227 60.5862 11.3636 60.3778 11.7841C60.1695 12.2045 60.0653 12.6553 60.0653 13.1364V13.9091C60.0653 14.5682 60.179 15.1269 60.4062 15.5852C60.6373 16.0398 60.9574 16.3864 61.3665 16.625C61.7756 16.8598 62.2509 16.9773 62.7926 16.9773C63.1449 16.9773 63.4631 16.928 63.7472 16.8295C64.035 16.7273 64.2831 16.5758 64.4915 16.375C64.6998 16.1705 64.8608 15.9167 64.9744 15.6136L66.2699 15.9773C66.1335 16.4167 65.9044 16.803 65.5824 17.1364C65.2604 17.4659 64.8627 17.7235 64.3892 17.9091C63.9157 18.0909 63.3835 18.1818 62.7926 18.1818ZM71.9915 18.1818C71.1733 18.1818 70.4688 17.9886 69.8778 17.6023C69.2869 17.2159 68.8324 16.6837 68.5142 16.0057C68.196 15.3277 68.0369 14.553 68.0369 13.6818C68.0369 12.7955 68.1998 12.0133 68.5256 11.3352C68.8551 10.6534 69.3134 10.1212 69.9006 9.73864C70.4915 9.35227 71.1809 9.15909 71.9688 9.15909C72.5824 9.15909 73.1354 9.27273 73.6278 9.5C74.1203 9.72727 74.5237 10.0455 74.8381 10.4545C75.1525 10.8636 75.3475 11.3409 75.4233 11.8864H74.0824C73.9801 11.4886 73.7528 11.1364 73.4006 10.8295C73.0521 10.5189 72.5824 10.3636 71.9915 10.3636C71.4688 10.3636 71.0104 10.5 70.6165 10.7727C70.2263 11.0417 69.9214 11.4223 69.7017 11.9148C69.4858 12.4034 69.3778 12.9773 69.3778 13.6364C69.3778 14.3106 69.4839 14.8977 69.696 15.3977C69.9119 15.8977 70.215 16.286 70.6051 16.5625C70.9991 16.839 71.4612 16.9773 71.9915 16.9773C72.34 16.9773 72.6562 16.9167 72.9403 16.7955C73.2244 16.6742 73.465 16.5 73.6619 16.2727C73.8589 16.0455 73.9991 15.7727 74.0824 15.4545H75.4233C75.3475 15.9697 75.16 16.4337 74.8608 16.8466C74.5653 17.2557 74.1733 17.5814 73.6847 17.8239C73.1998 18.0625 72.6354 18.1818 71.9915 18.1818ZM81.179 9.27273V10.4091H76.6562V9.27273H81.179ZM77.9744 7.18182H79.3153V15.5C79.3153 15.8788 79.3703 16.1629 79.4801 16.3523C79.5938 16.5379 79.7377 16.6629 79.9119 16.7273C80.09 16.7879 80.2775 16.8182 80.4744 16.8182C80.6222 16.8182 80.7434 16.8106 80.8381 16.7955C80.9328 16.7765 81.0085 16.7614 81.0653 16.75L81.3381 17.9545C81.2472 17.9886 81.1203 18.0227 80.9574 18.0568C80.7945 18.0947 80.5881 18.1136 80.3381 18.1136C79.9593 18.1136 79.5881 18.0322 79.2244 17.8693C78.8646 17.7064 78.5653 17.4583 78.3267 17.125C78.0919 16.7917 77.9744 16.3712 77.9744 15.8636V7.18182ZM83.196 18V9.27273H84.5369V18H83.196ZM83.8778 7.81818C83.6165 7.81818 83.3911 7.72917 83.2017 7.55114C83.0161 7.37311 82.9233 7.15909 82.9233 6.90909C82.9233 6.65909 83.0161 6.44508 83.2017 6.26705C83.3911 6.08902 83.6165 6 83.8778 6C84.1392 6 84.3627 6.08902 84.5483 6.26705C84.7377 6.44508 84.8324 6.65909 84.8324 6.90909C84.8324 7.15909 84.7377 7.37311 84.5483 7.55114C84.3627 7.72917 84.1392 7.81818 83.8778 7.81818ZM94.1293 9.27273L90.902 18H89.5384L86.3111 9.27273H87.7656L90.1747 16.2273H90.2656L92.6747 9.27273H94.1293ZM95.8991 18V9.27273H97.2401V18H95.8991ZM96.581 7.81818C96.3196 7.81818 96.0942 7.72917 95.9048 7.55114C95.7192 7.37311 95.6264 7.15909 95.6264 6.90909C95.6264 6.65909 95.7192 6.44508 95.9048 6.26705C96.0942 6.08902 96.3196 6 96.581 6C96.8423 6 97.0658 6.08902 97.2514 6.26705C97.4408 6.44508 97.5355 6.65909 97.5355 6.90909C97.5355 7.15909 97.4408 7.37311 97.2514 7.55114C97.0658 7.72917 96.8423 7.81818 96.581 7.81818ZM103.491 9.27273V10.4091H98.9688V9.27273H103.491ZM100.287 7.18182H101.628V15.5C101.628 15.8788 101.683 16.1629 101.793 16.3523C101.906 16.5379 102.05 16.6629 102.224 16.7273C102.402 16.7879 102.59 16.8182 102.787 16.8182C102.935 16.8182 103.056 16.8106 103.151 16.7955C103.245 16.7765 103.321 16.7614 103.378 16.75L103.651 17.9545C103.56 17.9886 103.433 18.0227 103.27 18.0568C103.107 18.0947 102.901 18.1136 102.651 18.1136C102.272 18.1136 101.901 18.0322 101.537 17.8693C101.177 17.7064 100.878 17.4583 100.639 17.125C100.404 16.7917 100.287 16.3712 100.287 15.8636V7.18182ZM106.372 21.2727C106.145 21.2727 105.942 21.2538 105.764 21.2159C105.586 21.1818 105.463 21.1477 105.395 21.1136L105.736 19.9318C106.062 20.0152 106.349 20.0455 106.599 20.0227C106.849 20 107.071 19.8883 107.264 19.6875C107.461 19.4905 107.641 19.1705 107.804 18.7273L108.054 18.0455L104.827 9.27273H106.281L108.69 16.2273H108.781L111.19 9.27273H112.645L108.94 19.2727C108.774 19.7235 108.567 20.0966 108.321 20.392C108.075 20.6913 107.789 20.9129 107.463 21.0568C107.141 21.2008 106.777 21.2727 106.372 21.2727Z" fill="#637083"/>
</svg>
