<svg width="220" height="24" viewBox="0 0 220 24" fill="none" xmlns="http://www.w3.org/2000/svg">
<path d="M5.70312 18H2.11222V6.36364H5.86222C6.991 6.36364 7.95691 6.59659 8.75994 7.0625C9.56297 7.52462 10.1785 8.18939 10.6065 9.05682C11.0346 9.92045 11.2486 10.9545 11.2486 12.1591C11.2486 13.3712 11.0327 14.4148 10.6009 15.2898C10.169 16.161 9.54025 16.8314 8.71449 17.3011C7.88873 17.767 6.88494 18 5.70312 18ZM3.52131 16.75H5.61222C6.57434 16.75 7.37169 16.5644 8.00426 16.1932C8.63684 15.822 9.10843 15.2936 9.41903 14.608C9.72964 13.9223 9.88494 13.1061 9.88494 12.1591C9.88494 11.2197 9.73153 10.411 9.42472 9.73295C9.1179 9.05114 8.65956 8.52841 8.04972 8.16477C7.43987 7.79735 6.6804 7.61364 5.77131 7.61364H3.52131V16.75ZM16.9759 18.1818C16.188 18.1818 15.4967 17.9943 14.902 17.6193C14.3111 17.2443 13.849 16.7197 13.5156 16.0455C13.1861 15.3712 13.0213 14.5833 13.0213 13.6818C13.0213 12.7727 13.1861 11.9792 13.5156 11.3011C13.849 10.6231 14.3111 10.0966 14.902 9.72159C15.4967 9.34659 16.188 9.15909 16.9759 9.15909C17.7637 9.15909 18.4531 9.34659 19.044 9.72159C19.6387 10.0966 20.1009 10.6231 20.4304 11.3011C20.7637 11.9792 20.9304 12.7727 20.9304 13.6818C20.9304 14.5833 20.7637 15.3712 20.4304 16.0455C20.1009 16.7197 19.6387 17.2443 19.044 17.6193C18.4531 17.9943 17.7637 18.1818 16.9759 18.1818ZM16.9759 16.9773C17.5743 16.9773 18.0668 16.8239 18.4531 16.517C18.8395 16.2102 19.1255 15.8068 19.3111 15.3068C19.4967 14.8068 19.5895 14.2652 19.5895 13.6818C19.5895 13.0985 19.4967 12.5549 19.3111 12.0511C19.1255 11.5473 18.8395 11.1402 18.4531 10.8295C18.0668 10.5189 17.5743 10.3636 16.9759 10.3636C16.3774 10.3636 15.8849 10.5189 15.4986 10.8295C15.1122 11.1402 14.8262 11.5473 14.6406 12.0511C14.455 12.5549 14.3622 13.0985 14.3622 13.6818C14.3622 14.2652 14.455 14.8068 14.6406 15.3068C14.8262 15.8068 15.1122 16.2102 15.4986 16.517C15.8849 16.8239 16.3774 16.9773 16.9759 16.9773ZM26.5227 18.1818C25.7045 18.1818 25 17.9886 24.4091 17.6023C23.8182 17.2159 23.3636 16.6837 23.0455 16.0057C22.7273 15.3277 22.5682 14.553 22.5682 13.6818C22.5682 12.7955 22.7311 12.0133 23.0568 11.3352C23.3864 10.6534 23.8447 10.1212 24.4318 9.73864C25.0227 9.35227 25.7121 9.15909 26.5 9.15909C27.1136 9.15909 27.6667 9.27273 28.1591 9.5C28.6515 9.72727 29.0549 10.0455 29.3693 10.4545C29.6837 10.8636 29.8788 11.3409 29.9545 11.8864H28.6136C28.5114 11.4886 28.2841 11.1364 27.9318 10.8295C27.5833 10.5189 27.1136 10.3636 26.5227 10.3636C26 10.3636 25.5417 10.5 25.1477 10.7727C24.7576 11.0417 24.4527 11.4223 24.233 11.9148C24.017 12.4034 23.9091 12.9773 23.9091 13.6364C23.9091 14.3106 24.0152 14.8977 24.2273 15.3977C24.4432 15.8977 24.7462 16.286 25.1364 16.5625C25.5303 16.839 25.9924 16.9773 26.5227 16.9773C26.8712 16.9773 27.1875 16.9167 27.4716 16.7955C27.7557 16.6742 27.9962 16.5 28.1932 16.2727C28.3902 16.0455 28.5303 15.7727 28.6136 15.4545H29.9545C29.8788 15.9697 29.6913 16.4337 29.392 16.8466C29.0966 17.2557 28.7045 17.5814 28.2159 17.8239C27.7311 18.0625 27.1667 18.1818 26.5227 18.1818ZM37.4148 14.4318V9.27273H38.7557V18H37.4148V16.5227H37.3239C37.1193 16.9659 36.8011 17.3428 36.3693 17.6534C35.9375 17.9602 35.392 18.1136 34.733 18.1136C34.1875 18.1136 33.7027 17.9943 33.2784 17.7557C32.8542 17.5133 32.5208 17.1496 32.2784 16.6648C32.036 16.1761 31.9148 15.5606 31.9148 14.8182V9.27273H33.2557V14.7273C33.2557 15.3636 33.4337 15.8712 33.7898 16.25C34.1496 16.6288 34.608 16.8182 35.1648 16.8182C35.4981 16.8182 35.8371 16.733 36.1818 16.5625C36.5303 16.392 36.822 16.1307 37.0568 15.7784C37.2955 15.4261 37.4148 14.9773 37.4148 14.4318ZM41.2116 18V9.27273H42.5071V10.6364H42.6207C42.8026 10.1705 43.0961 9.80871 43.5014 9.55114C43.9067 9.28977 44.3935 9.15909 44.9616 9.15909C45.5374 9.15909 46.0166 9.28977 46.3991 9.55114C46.7855 9.80871 47.0866 10.1705 47.3026 10.6364H47.3935C47.617 10.1856 47.9522 9.82765 48.3991 9.5625C48.8461 9.29356 49.3821 9.15909 50.0071 9.15909C50.7874 9.15909 51.4257 9.40341 51.9219 9.89205C52.4181 10.3769 52.6662 11.1326 52.6662 12.1591V18H51.3253V12.1591C51.3253 11.5152 51.1491 11.0549 50.7969 10.7784C50.4446 10.5019 50.0298 10.3636 49.5526 10.3636C48.9389 10.3636 48.4635 10.5492 48.1264 10.9205C47.7893 11.2879 47.6207 11.7538 47.6207 12.3182V18H46.2571V12.0227C46.2571 11.5265 46.0961 11.1269 45.7741 10.8239C45.4522 10.517 45.0374 10.3636 44.5298 10.3636C44.1813 10.3636 43.8556 10.4564 43.5526 10.642C43.2533 10.8277 43.0109 11.0852 42.8253 11.4148C42.6435 11.7405 42.5526 12.1174 42.5526 12.5455V18H41.2116ZM58.777 18.1818C57.9361 18.1818 57.2107 17.9962 56.6009 17.625C55.9948 17.25 55.527 16.7273 55.1974 16.0568C54.8717 15.3826 54.7088 14.5985 54.7088 13.7045C54.7088 12.8106 54.8717 12.0227 55.1974 11.3409C55.527 10.6553 55.9853 10.1212 56.5724 9.73864C57.1634 9.35227 57.8527 9.15909 58.6406 9.15909C59.0952 9.15909 59.544 9.23485 59.9872 9.38636C60.4304 9.53788 60.8338 9.78409 61.1974 10.125C61.5611 10.4621 61.8509 10.9091 62.0668 11.4659C62.2827 12.0227 62.3906 12.7083 62.3906 13.5227V14.0909H55.6634V12.9318H61.027C61.027 12.4394 60.9285 12 60.7315 11.6136C60.5384 11.2273 60.2618 10.9223 59.902 10.6989C59.5459 10.4754 59.1255 10.3636 58.6406 10.3636C58.1065 10.3636 57.6444 10.4962 57.2543 10.7614C56.8679 11.0227 56.5705 11.3636 56.3622 11.7841C56.1539 12.2045 56.0497 12.6553 56.0497 13.1364V13.9091C56.0497 14.5682 56.1634 15.1269 56.3906 15.5852C56.6217 16.0398 56.9418 16.3864 57.3509 16.625C57.7599 16.8598 58.2353 16.9773 58.777 16.9773C59.1293 16.9773 59.4474 16.928 59.7315 16.8295C60.0194 16.7273 60.2675 16.5758 60.4759 16.375C60.6842 16.1705 60.8452 15.9167 60.9588 15.6136L62.2543 15.9773C62.1179 16.4167 61.8887 16.803 61.5668 17.1364C61.2448 17.4659 60.8471 17.7235 60.3736 17.9091C59.9001 18.0909 59.3679 18.1818 58.777 18.1818ZM65.7713 12.75V18H64.4304V9.27273H65.7259V10.6364H65.8395C66.044 10.1932 66.3546 9.83712 66.7713 9.56818C67.188 9.29545 67.7259 9.15909 68.3849 9.15909C68.9759 9.15909 69.4929 9.2803 69.9361 9.52273C70.3793 9.76136 70.724 10.125 70.9702 10.6136C71.2164 11.0985 71.3395 11.7121 71.3395 12.4545V18H69.9986V12.5455C69.9986 11.8598 69.8205 11.3258 69.4645 10.9432C69.1084 10.5568 68.6198 10.3636 67.9986 10.3636C67.5705 10.3636 67.188 10.4564 66.8509 10.642C66.5175 10.8277 66.2543 11.0985 66.0611 11.4545C65.8679 11.8106 65.7713 12.2424 65.7713 12.75ZM77.5852 9.27273V10.4091H73.0625V9.27273H77.5852ZM74.3807 7.18182H75.7216V15.5C75.7216 15.8788 75.7765 16.1629 75.8864 16.3523C76 16.5379 76.1439 16.6629 76.3182 16.7273C76.4962 16.7879 76.6837 16.8182 76.8807 16.8182C77.0284 16.8182 77.1496 16.8106 77.2443 16.7955C77.339 16.7765 77.4148 16.7614 77.4716 16.75L77.7443 17.9545C77.6534 17.9886 77.5265 18.0227 77.3636 18.0568C77.2008 18.0947 76.9943 18.1136 76.7443 18.1136C76.3655 18.1136 75.9943 18.0322 75.6307 17.8693C75.2708 17.7064 74.9716 17.4583 74.733 17.125C74.4981 16.7917 74.3807 16.3712 74.3807 15.8636V7.18182ZM87.3977 18.1591C86.6326 18.1591 85.9735 18.0189 85.4205 17.7386C84.8674 17.4583 84.4413 17.0739 84.142 16.5852C83.8428 16.0966 83.6932 15.5379 83.6932 14.9091C83.6932 14.4242 83.7955 13.9943 84 13.6193C84.2083 13.2405 84.4943 12.8902 84.858 12.5682C85.2254 12.2424 85.6477 11.9167 86.125 11.5909L87.8068 10.3409C88.1364 10.125 88.3996 9.89394 88.5966 9.64773C88.7973 9.40152 88.8977 9.07955 88.8977 8.68182C88.8977 8.38636 88.767 8.10038 88.5057 7.82386C88.2481 7.54735 87.9091 7.40909 87.4886 7.40909C87.1932 7.40909 86.9318 7.48485 86.7045 7.63636C86.4811 7.78409 86.3049 7.97348 86.1761 8.20455C86.0511 8.43182 85.9886 8.66667 85.9886 8.90909C85.9886 9.18182 86.0625 9.45833 86.2102 9.73864C86.3617 10.0152 86.553 10.2992 86.7841 10.5909C87.0189 10.8788 87.2614 11.1742 87.5114 11.4773L92.8523 18H91.2386L86.8295 12.6818C86.4205 12.1894 86.0492 11.7424 85.7159 11.3409C85.3826 10.9394 85.1174 10.5436 84.9205 10.1534C84.7235 9.76326 84.625 9.34091 84.625 8.88636C84.625 8.36364 84.7405 7.9053 84.9716 7.51136C85.2064 7.11364 85.5341 6.80492 85.9545 6.58523C86.3788 6.36174 86.875 6.25 87.4432 6.25C88.0265 6.25 88.5284 6.36364 88.9489 6.59091C89.3693 6.81439 89.6932 7.11174 89.9205 7.48295C90.1477 7.85038 90.2614 8.25 90.2614 8.68182C90.2614 9.23864 90.1231 9.72159 89.8466 10.1307C89.5701 10.5398 89.1932 10.9205 88.7159 11.2727L86.3977 13C85.875 13.3864 85.5208 13.7614 85.3352 14.125C85.1496 14.4886 85.0568 14.75 85.0568 14.9091C85.0568 15.2727 85.1515 15.6117 85.3409 15.9261C85.5303 16.2405 85.7973 16.4943 86.142 16.6875C86.4867 16.8807 86.8902 16.9773 87.3523 16.9773C87.7917 16.9773 88.2197 16.8845 88.6364 16.6989C89.053 16.5095 89.4299 16.2367 89.767 15.8807C90.108 15.5246 90.3769 15.0966 90.5739 14.5966C90.7746 14.0966 90.875 13.5341 90.875 12.9091H92.1705C92.1705 13.6818 92.0814 14.3125 91.9034 14.8011C91.7254 15.2898 91.5246 15.6723 91.3011 15.9489C91.0777 16.2254 90.8977 16.4318 90.7614 16.5682C90.7159 16.625 90.6742 16.6818 90.6364 16.7386C90.5985 16.7955 90.5568 16.8523 90.5114 16.9091C90.1364 17.3295 89.6629 17.6439 89.0909 17.8523C88.5189 18.0568 87.9545 18.1591 87.3977 18.1591ZM99.0185 18V6.36364H103.087C103.897 6.36364 104.566 6.50379 105.092 6.78409C105.619 7.06061 106.011 7.43371 106.268 7.90341C106.526 8.36932 106.655 8.88636 106.655 9.45455C106.655 9.95455 106.566 10.3674 106.388 10.6932C106.214 11.0189 105.982 11.2765 105.695 11.4659C105.411 11.6553 105.102 11.7955 104.768 11.8864V12C105.125 12.0227 105.482 12.1477 105.842 12.375C106.202 12.6023 106.503 12.928 106.746 13.3523C106.988 13.7765 107.109 14.2955 107.109 14.9091C107.109 15.4924 106.977 16.017 106.712 16.483C106.446 16.9489 106.028 17.3182 105.456 17.5909C104.884 17.8636 104.14 18 103.223 18H99.0185ZM100.428 16.75H103.223C104.143 16.75 104.797 16.572 105.183 16.2159C105.573 15.8561 105.768 15.4205 105.768 14.9091C105.768 14.5152 105.668 14.1515 105.467 13.8182C105.267 13.4811 104.981 13.2121 104.609 13.0114C104.238 12.8068 103.799 12.7045 103.291 12.7045H100.428V16.75ZM100.428 11.4773H103.041C103.465 11.4773 103.848 11.3939 104.189 11.2273C104.534 11.0606 104.806 10.8258 105.007 10.5227C105.212 10.2197 105.314 9.86364 105.314 9.45455C105.314 8.94318 105.136 8.50947 104.78 8.15341C104.424 7.79356 103.859 7.61364 103.087 7.61364H100.428V11.4773ZM111.811 18.2045C111.258 18.2045 110.756 18.1004 110.305 17.892C109.855 17.6799 109.497 17.375 109.232 16.9773C108.966 16.5758 108.834 16.0909 108.834 15.5227C108.834 15.0227 108.932 14.6174 109.129 14.3068C109.326 13.9924 109.589 13.7462 109.919 13.5682C110.249 13.3902 110.612 13.2576 111.01 13.1705C111.411 13.0795 111.815 13.0076 112.22 12.9545C112.75 12.8864 113.18 12.8352 113.51 12.8011C113.843 12.7633 114.086 12.7008 114.237 12.6136C114.393 12.5265 114.47 12.375 114.47 12.1591V12.1136C114.47 11.553 114.317 11.1174 114.01 10.8068C113.707 10.4962 113.247 10.3409 112.629 10.3409C111.989 10.3409 111.487 10.4811 111.124 10.7614C110.76 11.0417 110.504 11.3409 110.357 11.6591L109.084 11.2045C109.311 10.6742 109.614 10.2614 109.993 9.96591C110.375 9.66667 110.792 9.45833 111.243 9.34091C111.697 9.2197 112.144 9.15909 112.584 9.15909C112.864 9.15909 113.186 9.19318 113.55 9.26136C113.917 9.32576 114.271 9.46023 114.612 9.66477C114.957 9.86932 115.243 10.178 115.47 10.5909C115.697 11.0038 115.811 11.5568 115.811 12.25V18H114.47V16.8182H114.402C114.311 17.0076 114.16 17.2102 113.947 17.4261C113.735 17.642 113.453 17.8258 113.101 17.9773C112.749 18.1288 112.319 18.2045 111.811 18.2045ZM112.016 17C112.546 17 112.993 16.8958 113.357 16.6875C113.724 16.4792 114 16.2102 114.186 15.8807C114.375 15.5511 114.47 15.2045 114.47 14.8409V13.6136C114.413 13.6818 114.288 13.7443 114.095 13.8011C113.906 13.8542 113.686 13.9015 113.436 13.9432C113.19 13.9811 112.949 14.0152 112.714 14.0455C112.483 14.072 112.296 14.0947 112.152 14.1136C111.804 14.1591 111.478 14.233 111.175 14.3352C110.875 14.4337 110.633 14.5833 110.447 14.7841C110.266 14.9811 110.175 15.25 110.175 15.5909C110.175 16.0568 110.347 16.4091 110.692 16.6477C111.04 16.8826 111.482 17 112.016 17ZM119.599 12.75V18H118.259V9.27273H119.554V10.6364H119.668C119.872 10.1932 120.183 9.83712 120.599 9.56818C121.016 9.29545 121.554 9.15909 122.213 9.15909C122.804 9.15909 123.321 9.2803 123.764 9.52273C124.207 9.76136 124.552 10.125 124.798 10.6136C125.045 11.0985 125.168 11.7121 125.168 12.4545V18H123.827V12.5455C123.827 11.8598 123.649 11.3258 123.293 10.9432C122.937 10.5568 122.448 10.3636 121.827 10.3636C121.399 10.3636 121.016 10.4564 120.679 10.642C120.346 10.8277 120.082 11.0985 119.889 11.4545C119.696 11.8106 119.599 12.2424 119.599 12.75ZM128.868 14.8182L128.845 13.1591H129.118L132.936 9.27273H134.595L130.527 13.3864H130.413L128.868 14.8182ZM127.618 18V6.36364H128.959V18H127.618ZM133.163 18L129.754 13.6818L130.709 12.75L134.868 18H133.163ZM141.48 18H140.003L144.276 6.36364H145.73L150.003 18H148.526L145.048 8.20455H144.957L141.48 18ZM142.026 13.4545H147.98V14.7045H142.026V13.4545ZM152.974 12.75V18H151.634V9.27273H152.929V10.6364H153.043C153.247 10.1932 153.558 9.83712 153.974 9.56818C154.391 9.29545 154.929 9.15909 155.588 9.15909C156.179 9.15909 156.696 9.2803 157.139 9.52273C157.582 9.76136 157.927 10.125 158.173 10.6136C158.42 11.0985 158.543 11.7121 158.543 12.4545V18H157.202V12.5455C157.202 11.8598 157.024 11.3258 156.668 10.9432C156.312 10.5568 155.823 10.3636 155.202 10.3636C154.774 10.3636 154.391 10.4564 154.054 10.642C153.721 10.8277 153.457 11.0985 153.264 11.4545C153.071 11.8106 152.974 12.2424 152.974 12.75ZM163.561 18.2045C163.008 18.2045 162.506 18.1004 162.055 17.892C161.605 17.6799 161.247 17.375 160.982 16.9773C160.716 16.5758 160.584 16.0909 160.584 15.5227C160.584 15.0227 160.682 14.6174 160.879 14.3068C161.076 13.9924 161.339 13.7462 161.669 13.5682C161.999 13.3902 162.362 13.2576 162.76 13.1705C163.161 13.0795 163.565 13.0076 163.97 12.9545C164.5 12.8864 164.93 12.8352 165.26 12.8011C165.593 12.7633 165.836 12.7008 165.987 12.6136C166.143 12.5265 166.22 12.375 166.22 12.1591V12.1136C166.22 11.553 166.067 11.1174 165.76 10.8068C165.457 10.4962 164.997 10.3409 164.379 10.3409C163.739 10.3409 163.237 10.4811 162.874 10.7614C162.51 11.0417 162.254 11.3409 162.107 11.6591L160.834 11.2045C161.061 10.6742 161.364 10.2614 161.743 9.96591C162.125 9.66667 162.542 9.45833 162.993 9.34091C163.447 9.2197 163.894 9.15909 164.334 9.15909C164.614 9.15909 164.936 9.19318 165.3 9.26136C165.667 9.32576 166.021 9.46023 166.362 9.66477C166.707 9.86932 166.993 10.178 167.22 10.5909C167.447 11.0038 167.561 11.5568 167.561 12.25V18H166.22V16.8182H166.152C166.061 17.0076 165.91 17.2102 165.697 17.4261C165.485 17.642 165.203 17.8258 164.851 17.9773C164.499 18.1288 164.069 18.2045 163.561 18.2045ZM163.766 17C164.296 17 164.743 16.8958 165.107 16.6875C165.474 16.4792 165.75 16.2102 165.936 15.8807C166.125 15.5511 166.22 15.2045 166.22 14.8409V13.6136C166.163 13.6818 166.038 13.7443 165.845 13.8011C165.656 13.8542 165.436 13.9015 165.186 13.9432C164.94 13.9811 164.699 14.0152 164.464 14.0455C164.233 14.072 164.046 14.0947 163.902 14.1136C163.554 14.1591 163.228 14.233 162.925 14.3352C162.625 14.4337 162.383 14.5833 162.197 14.7841C162.016 14.9811 161.925 15.25 161.925 15.5909C161.925 16.0568 162.097 16.4091 162.442 16.6477C162.79 16.8826 163.232 17 163.766 17ZM171.349 6.36364V18H170.009V6.36364H171.349ZM174.669 21.2727C174.442 21.2727 174.239 21.2538 174.061 21.2159C173.883 21.1818 173.76 21.1477 173.692 21.1136L174.033 19.9318C174.358 20.0152 174.646 20.0455 174.896 20.0227C175.146 20 175.368 19.8883 175.561 19.6875C175.758 19.4905 175.938 19.1705 176.101 18.7273L176.351 18.0455L173.124 9.27273H174.578L176.987 16.2273H177.078L179.487 9.27273H180.942L177.237 19.2727C177.071 19.7235 176.864 20.0966 176.618 20.392C176.372 20.6913 176.086 20.9129 175.76 21.0568C175.438 21.2008 175.074 21.2727 174.669 21.2727ZM188.893 11.2273L187.689 11.5682C187.613 11.3674 187.501 11.1723 187.354 10.983C187.21 10.7898 187.013 10.6307 186.763 10.5057C186.513 10.3807 186.193 10.3182 185.803 10.3182C185.268 10.3182 184.823 10.4413 184.467 10.6875C184.115 10.9299 183.939 11.2386 183.939 11.6136C183.939 11.947 184.06 12.2102 184.303 12.4034C184.545 12.5966 184.924 12.7576 185.439 12.8864L186.734 13.2045C187.515 13.3939 188.096 13.6837 188.479 14.0739C188.861 14.4602 189.053 14.9583 189.053 15.5682C189.053 16.0682 188.909 16.5152 188.621 16.9091C188.337 17.303 187.939 17.6136 187.428 17.8409C186.916 18.0682 186.321 18.1818 185.643 18.1818C184.753 18.1818 184.017 17.9886 183.433 17.6023C182.85 17.2159 182.481 16.6515 182.325 15.9091L183.598 15.5909C183.719 16.0606 183.948 16.4129 184.286 16.6477C184.626 16.8826 185.071 17 185.621 17C186.246 17 186.742 16.8674 187.109 16.6023C187.481 16.3333 187.666 16.0114 187.666 15.6364C187.666 15.3333 187.56 15.0795 187.348 14.875C187.136 14.6667 186.81 14.5114 186.371 14.4091L184.916 14.0682C184.117 13.8788 183.53 13.5852 183.155 13.1875C182.784 12.786 182.598 12.2841 182.598 11.6818C182.598 11.1894 182.736 10.7538 183.013 10.375C183.293 9.99621 183.674 9.69886 184.155 9.48295C184.64 9.26705 185.189 9.15909 185.803 9.15909C186.666 9.15909 187.344 9.34848 187.837 9.72727C188.333 10.1061 188.685 10.6061 188.893 11.2273ZM191.071 18V9.27273H192.412V18H191.071ZM191.753 7.81818C191.491 7.81818 191.266 7.72917 191.077 7.55114C190.891 7.37311 190.798 7.15909 190.798 6.90909C190.798 6.65909 190.891 6.44508 191.077 6.26705C191.266 6.08902 191.491 6 191.753 6C192.014 6 192.238 6.08902 192.423 6.26705C192.613 6.44508 192.707 6.65909 192.707 6.90909C192.707 7.15909 192.613 7.37311 192.423 7.55114C192.238 7.72917 192.014 7.81818 191.753 7.81818ZM201.05 11.2273L199.845 11.5682C199.769 11.3674 199.658 11.1723 199.51 10.983C199.366 10.7898 199.169 10.6307 198.919 10.5057C198.669 10.3807 198.349 10.3182 197.959 10.3182C197.425 10.3182 196.98 10.4413 196.624 10.6875C196.271 10.9299 196.095 11.2386 196.095 11.6136C196.095 11.947 196.216 12.2102 196.459 12.4034C196.701 12.5966 197.08 12.7576 197.595 12.8864L198.891 13.2045C199.671 13.3939 200.252 13.6837 200.635 14.0739C201.018 14.4602 201.209 14.9583 201.209 15.5682C201.209 16.0682 201.065 16.5152 200.777 16.9091C200.493 17.303 200.095 17.6136 199.584 17.8409C199.072 18.0682 198.478 18.1818 197.8 18.1818C196.91 18.1818 196.173 17.9886 195.589 17.6023C195.006 17.2159 194.637 16.6515 194.482 15.9091L195.754 15.5909C195.875 16.0606 196.105 16.4129 196.442 16.6477C196.783 16.8826 197.228 17 197.777 17C198.402 17 198.898 16.8674 199.266 16.6023C199.637 16.3333 199.822 16.0114 199.822 15.6364C199.822 15.3333 199.716 15.0795 199.504 14.875C199.292 14.6667 198.966 14.5114 198.527 14.4091L197.072 14.0682C196.273 13.8788 195.686 13.5852 195.311 13.1875C194.94 12.786 194.754 12.2841 194.754 11.6818C194.754 11.1894 194.893 10.7538 195.169 10.375C195.449 9.99621 195.83 9.69886 196.311 9.48295C196.796 9.26705 197.345 9.15909 197.959 9.15909C198.822 9.15909 199.5 9.34848 199.993 9.72727C200.489 10.1061 200.841 10.6061 201.05 11.2273Z" fill="#637083"/>
<circle cx="214" cy="12" r="4.5" fill="#E1FCAD" stroke="#1A332B" stroke-width="3"/>
</svg>
