<svg width="178" height="24" viewBox="0 0 178 24" fill="none" xmlns="http://www.w3.org/2000/svg">
<path d="M1.72159 18V6.36364H5.65341C6.56629 6.36364 7.3125 6.52841 7.89205 6.85795C8.47538 7.18371 8.9072 7.625 9.1875 8.18182C9.4678 8.73864 9.60795 9.35985 9.60795 10.0455C9.60795 10.7311 9.4678 11.3542 9.1875 11.9148C8.91099 12.4754 8.48296 12.9223 7.90341 13.2557C7.32386 13.5852 6.58144 13.75 5.67614 13.75H2.85795V12.5H5.63068C6.25568 12.5 6.75758 12.392 7.13636 12.1761C7.51515 11.9602 7.78977 11.6686 7.96023 11.3011C8.13447 10.9299 8.22159 10.5114 8.22159 10.0455C8.22159 9.57955 8.13447 9.16288 7.96023 8.79545C7.78977 8.42803 7.51326 8.14015 7.13068 7.93182C6.74811 7.7197 6.24053 7.61364 5.60795 7.61364H3.13068V18H1.72159ZM14.2642 18.2045C13.7112 18.2045 13.2093 18.1004 12.7585 17.892C12.3078 17.6799 11.9498 17.375 11.6847 16.9773C11.4195 16.5758 11.2869 16.0909 11.2869 15.5227C11.2869 15.0227 11.3854 14.6174 11.5824 14.3068C11.7794 13.9924 12.0426 13.7462 12.3722 13.5682C12.7017 13.3902 13.0653 13.2576 13.4631 13.1705C13.8646 13.0795 14.268 13.0076 14.6733 12.9545C15.2036 12.8864 15.6335 12.8352 15.9631 12.8011C16.2964 12.7633 16.5388 12.7008 16.6903 12.6136C16.8456 12.5265 16.9233 12.375 16.9233 12.1591V12.1136C16.9233 11.553 16.7699 11.1174 16.4631 10.8068C16.16 10.4962 15.6998 10.3409 15.0824 10.3409C14.4422 10.3409 13.9403 10.4811 13.5767 10.7614C13.2131 11.0417 12.9574 11.3409 12.8097 11.6591L11.5369 11.2045C11.7642 10.6742 12.0672 10.2614 12.446 9.96591C12.8286 9.66667 13.2453 9.45833 13.696 9.34091C14.1506 9.2197 14.5975 9.15909 15.0369 9.15909C15.3172 9.15909 15.6392 9.19318 16.0028 9.26136C16.3703 9.32576 16.7244 9.46023 17.0653 9.66477C17.41 9.86932 17.696 10.178 17.9233 10.5909C18.1506 11.0038 18.2642 11.5568 18.2642 12.25V18H16.9233V16.8182H16.8551C16.7642 17.0076 16.6127 17.2102 16.4006 17.4261C16.1884 17.642 15.9063 17.8258 15.554 17.9773C15.2017 18.1288 14.7718 18.2045 14.2642 18.2045ZM14.4688 17C14.9991 17 15.446 16.8958 15.8097 16.6875C16.1771 16.4792 16.4536 16.2102 16.6392 15.8807C16.8286 15.5511 16.9233 15.2045 16.9233 14.8409V13.6136C16.8665 13.6818 16.7415 13.7443 16.5483 13.8011C16.3589 13.8542 16.1392 13.9015 15.8892 13.9432C15.643 13.9811 15.4025 14.0152 15.1676 14.0455C14.9366 14.072 14.7491 14.0947 14.6051 14.1136C14.2566 14.1591 13.9309 14.233 13.6278 14.3352C13.3286 14.4337 13.0862 14.5833 12.9006 14.7841C12.7188 14.9811 12.6278 15.25 12.6278 15.5909C12.6278 16.0568 12.8002 16.4091 13.1449 16.6477C13.4934 16.8826 13.9347 17 14.4688 17ZM20.7116 18V9.27273H22.0071V10.5909H22.098C22.2571 10.1591 22.545 9.80871 22.9616 9.53977C23.3783 9.27083 23.848 9.13636 24.3707 9.13636C24.4692 9.13636 24.5923 9.13826 24.7401 9.14205C24.8878 9.14583 24.9995 9.15152 25.0753 9.15909V10.5227C25.0298 10.5114 24.9257 10.4943 24.7628 10.4716C24.6037 10.4451 24.4351 10.4318 24.2571 10.4318C23.8329 10.4318 23.4541 10.5208 23.1207 10.6989C22.7912 10.8731 22.5298 11.1155 22.3366 11.4261C22.1473 11.733 22.0526 12.0833 22.0526 12.4773V18H20.7116ZM31.0071 9.27273V10.4091H26.4844V9.27273H31.0071ZM27.8026 7.18182H29.1435V15.5C29.1435 15.8788 29.1984 16.1629 29.3082 16.3523C29.4219 16.5379 29.5658 16.6629 29.7401 16.7273C29.9181 16.7879 30.1056 16.8182 30.3026 16.8182C30.4503 16.8182 30.5715 16.8106 30.6662 16.7955C30.7609 16.7765 30.8366 16.7614 30.8935 16.75L31.1662 17.9545C31.0753 17.9886 30.9484 18.0227 30.7855 18.0568C30.6226 18.0947 30.4162 18.1136 30.1662 18.1136C29.7874 18.1136 29.4162 18.0322 29.0526 17.8693C28.6927 17.7064 28.3935 17.4583 28.1548 17.125C27.92 16.7917 27.8026 16.3712 27.8026 15.8636V7.18182ZM34.3651 12.75V18H33.0241V9.27273H34.3196V10.6364H34.4332C34.6378 10.1932 34.9484 9.83712 35.3651 9.56818C35.7817 9.29545 36.3196 9.15909 36.9787 9.15909C37.5696 9.15909 38.0866 9.2803 38.5298 9.52273C38.973 9.76136 39.3177 10.125 39.5639 10.6136C39.8101 11.0985 39.9332 11.7121 39.9332 12.4545V18H38.5923V12.5455C38.5923 11.8598 38.4143 11.3258 38.0582 10.9432C37.7022 10.5568 37.2135 10.3636 36.5923 10.3636C36.1643 10.3636 35.7817 10.4564 35.4446 10.642C35.1113 10.8277 34.848 11.0985 34.6548 11.4545C34.4616 11.8106 34.3651 12.2424 34.3651 12.75ZM46.0426 18.1818C45.2017 18.1818 44.4763 17.9962 43.8665 17.625C43.2604 17.25 42.7926 16.7273 42.4631 16.0568C42.1373 15.3826 41.9744 14.5985 41.9744 13.7045C41.9744 12.8106 42.1373 12.0227 42.4631 11.3409C42.7926 10.6553 43.2509 10.1212 43.8381 9.73864C44.429 9.35227 45.1184 9.15909 45.9062 9.15909C46.3608 9.15909 46.8097 9.23485 47.2528 9.38636C47.696 9.53788 48.0994 9.78409 48.4631 10.125C48.8267 10.4621 49.1165 10.9091 49.3324 11.4659C49.5483 12.0227 49.6562 12.7083 49.6562 13.5227V14.0909H42.929V12.9318H48.2926C48.2926 12.4394 48.1941 12 47.9972 11.6136C47.804 11.2273 47.5275 10.9223 47.1676 10.6989C46.8116 10.4754 46.3911 10.3636 45.9062 10.3636C45.3722 10.3636 44.91 10.4962 44.5199 10.7614C44.1335 11.0227 43.8362 11.3636 43.6278 11.7841C43.4195 12.2045 43.3153 12.6553 43.3153 13.1364V13.9091C43.3153 14.5682 43.429 15.1269 43.6562 15.5852C43.8873 16.0398 44.2074 16.3864 44.6165 16.625C45.0256 16.8598 45.5009 16.9773 46.0426 16.9773C46.3949 16.9773 46.7131 16.928 46.9972 16.8295C47.285 16.7273 47.5331 16.5758 47.7415 16.375C47.9498 16.1705 48.1108 15.9167 48.2244 15.6136L49.5199 15.9773C49.3835 16.4167 49.1544 16.803 48.8324 17.1364C48.5104 17.4659 48.1127 17.7235 47.6392 17.9091C47.1657 18.0909 46.6335 18.1818 46.0426 18.1818ZM51.696 18V9.27273H52.9915V10.5909H53.0824C53.2415 10.1591 53.5294 9.80871 53.946 9.53977C54.3627 9.27083 54.8324 9.13636 55.3551 9.13636C55.4536 9.13636 55.5767 9.13826 55.7244 9.14205C55.8722 9.14583 55.9839 9.15152 56.0597 9.15909V10.5227C56.0142 10.5114 55.91 10.4943 55.7472 10.4716C55.5881 10.4451 55.4195 10.4318 55.2415 10.4318C54.8172 10.4318 54.4384 10.5208 54.1051 10.6989C53.7756 10.8731 53.5142 11.1155 53.321 11.4261C53.1316 11.733 53.0369 12.0833 53.0369 12.4773V18H51.696ZM62.331 6.36364H64.0128L67.9673 16.0227H68.1037L72.0582 6.36364H73.7401V18H72.4219V9.15909H72.3082L68.6719 18H67.3991L63.7628 9.15909H63.6491V18H62.331V6.36364ZM78.9517 18.2045C78.3987 18.2045 77.8968 18.1004 77.446 17.892C76.9953 17.6799 76.6373 17.375 76.3722 16.9773C76.107 16.5758 75.9744 16.0909 75.9744 15.5227C75.9744 15.0227 76.0729 14.6174 76.2699 14.3068C76.4669 13.9924 76.7301 13.7462 77.0597 13.5682C77.3892 13.3902 77.7528 13.2576 78.1506 13.1705C78.5521 13.0795 78.9555 13.0076 79.3608 12.9545C79.8911 12.8864 80.321 12.8352 80.6506 12.8011C80.9839 12.7633 81.2263 12.7008 81.3778 12.6136C81.5331 12.5265 81.6108 12.375 81.6108 12.1591V12.1136C81.6108 11.553 81.4574 11.1174 81.1506 10.8068C80.8475 10.4962 80.3873 10.3409 79.7699 10.3409C79.1297 10.3409 78.6278 10.4811 78.2642 10.7614C77.9006 11.0417 77.6449 11.3409 77.4972 11.6591L76.2244 11.2045C76.4517 10.6742 76.7547 10.2614 77.1335 9.96591C77.5161 9.66667 77.9328 9.45833 78.3835 9.34091C78.8381 9.2197 79.285 9.15909 79.7244 9.15909C80.0047 9.15909 80.3267 9.19318 80.6903 9.26136C81.0578 9.32576 81.4119 9.46023 81.7528 9.66477C82.0975 9.86932 82.3835 10.178 82.6108 10.5909C82.8381 11.0038 82.9517 11.5568 82.9517 12.25V18H81.6108V16.8182H81.5426C81.4517 17.0076 81.3002 17.2102 81.0881 17.4261C80.8759 17.642 80.5938 17.8258 80.2415 17.9773C79.8892 18.1288 79.4593 18.2045 78.9517 18.2045ZM79.1562 17C79.6866 17 80.1335 16.8958 80.4972 16.6875C80.8646 16.4792 81.1411 16.2102 81.3267 15.8807C81.5161 15.5511 81.6108 15.2045 81.6108 14.8409V13.6136C81.554 13.6818 81.429 13.7443 81.2358 13.8011C81.0464 13.8542 80.8267 13.9015 80.5767 13.9432C80.3305 13.9811 80.09 14.0152 79.8551 14.0455C79.6241 14.072 79.4366 14.0947 79.2926 14.1136C78.9441 14.1591 78.6184 14.233 78.3153 14.3352C78.0161 14.4337 77.7737 14.5833 77.5881 14.7841C77.4063 14.9811 77.3153 15.25 77.3153 15.5909C77.3153 16.0568 77.4877 16.4091 77.8324 16.6477C78.1809 16.8826 78.6222 17 79.1562 17ZM86.7401 12.75V18H85.3991V9.27273H86.6946V10.6364H86.8082C87.0128 10.1932 87.3234 9.83712 87.7401 9.56818C88.1567 9.29545 88.6946 9.15909 89.3537 9.15909C89.9446 9.15909 90.4616 9.2803 90.9048 9.52273C91.348 9.76136 91.6927 10.125 91.9389 10.6136C92.1851 11.0985 92.3082 11.7121 92.3082 12.4545V18H90.9673V12.5455C90.9673 11.8598 90.7893 11.3258 90.4332 10.9432C90.0772 10.5568 89.5885 10.3636 88.9673 10.3636C88.5393 10.3636 88.1567 10.4564 87.8196 10.642C87.4863 10.8277 87.223 11.0985 87.0298 11.4545C86.8366 11.8106 86.7401 12.2424 86.7401 12.75ZM97.3267 18.2045C96.7737 18.2045 96.2718 18.1004 95.821 17.892C95.3703 17.6799 95.0123 17.375 94.7472 16.9773C94.482 16.5758 94.3494 16.0909 94.3494 15.5227C94.3494 15.0227 94.4479 14.6174 94.6449 14.3068C94.8419 13.9924 95.1051 13.7462 95.4347 13.5682C95.7642 13.3902 96.1278 13.2576 96.5256 13.1705C96.9271 13.0795 97.3305 13.0076 97.7358 12.9545C98.2661 12.8864 98.696 12.8352 99.0256 12.8011C99.3589 12.7633 99.6013 12.7008 99.7528 12.6136C99.9081 12.5265 99.9858 12.375 99.9858 12.1591V12.1136C99.9858 11.553 99.8324 11.1174 99.5256 10.8068C99.2225 10.4962 98.7623 10.3409 98.1449 10.3409C97.5047 10.3409 97.0028 10.4811 96.6392 10.7614C96.2756 11.0417 96.0199 11.3409 95.8722 11.6591L94.5994 11.2045C94.8267 10.6742 95.1297 10.2614 95.5085 9.96591C95.8911 9.66667 96.3078 9.45833 96.7585 9.34091C97.2131 9.2197 97.66 9.15909 98.0994 9.15909C98.3797 9.15909 98.7017 9.19318 99.0653 9.26136C99.4328 9.32576 99.7869 9.46023 100.128 9.66477C100.473 9.86932 100.759 10.178 100.986 10.5909C101.213 11.0038 101.327 11.5568 101.327 12.25V18H99.9858V16.8182H99.9176C99.8267 17.0076 99.6752 17.2102 99.4631 17.4261C99.2509 17.642 98.9688 17.8258 98.6165 17.9773C98.2642 18.1288 97.8343 18.2045 97.3267 18.2045ZM97.5312 17C98.0616 17 98.5085 16.8958 98.8722 16.6875C99.2396 16.4792 99.5161 16.2102 99.7017 15.8807C99.8911 15.5511 99.9858 15.2045 99.9858 14.8409V13.6136C99.929 13.6818 99.804 13.7443 99.6108 13.8011C99.4214 13.8542 99.2017 13.9015 98.9517 13.9432C98.7055 13.9811 98.465 14.0152 98.2301 14.0455C97.9991 14.072 97.8116 14.0947 97.6676 14.1136C97.3191 14.1591 96.9934 14.233 96.6903 14.3352C96.3911 14.4337 96.1487 14.5833 95.9631 14.7841C95.7813 14.9811 95.6903 15.25 95.6903 15.5909C95.6903 16.0568 95.8627 16.4091 96.2074 16.6477C96.5559 16.8826 96.9972 17 97.5312 17ZM107.297 21.4545C106.649 21.4545 106.092 21.3712 105.626 21.2045C105.161 21.0417 104.772 20.8258 104.462 20.5568C104.155 20.2917 103.911 20.0076 103.729 19.7045L104.797 18.9545C104.918 19.1136 105.071 19.2955 105.257 19.5C105.443 19.7083 105.696 19.8883 106.018 20.0398C106.344 20.1951 106.77 20.2727 107.297 20.2727C108.001 20.2727 108.583 20.1023 109.041 19.7614C109.5 19.4205 109.729 18.8864 109.729 18.1591V16.3864H109.615C109.517 16.5455 109.376 16.7424 109.195 16.9773C109.017 17.2083 108.759 17.4148 108.422 17.5966C108.089 17.7746 107.638 17.8636 107.07 17.8636C106.365 17.8636 105.732 17.697 105.172 17.3636C104.615 17.0303 104.174 16.5455 103.848 15.9091C103.526 15.2727 103.365 14.5 103.365 13.5909C103.365 12.697 103.522 11.9186 103.837 11.2557C104.151 10.589 104.589 10.0739 105.149 9.71023C105.71 9.3428 106.357 9.15909 107.092 9.15909C107.661 9.15909 108.111 9.25379 108.445 9.44318C108.782 9.62879 109.039 9.84091 109.217 10.0795C109.399 10.3144 109.539 10.5076 109.638 10.6591H109.774V9.27273H111.07V18.25C111.07 19 110.899 19.6098 110.558 20.0795C110.221 20.553 109.767 20.8996 109.195 21.1193C108.626 21.3428 107.994 21.4545 107.297 21.4545ZM107.251 16.6591C107.789 16.6591 108.244 16.536 108.615 16.2898C108.986 16.0436 109.268 15.6894 109.462 15.2273C109.655 14.7652 109.751 14.2121 109.751 13.5682C109.751 12.9394 109.657 12.3845 109.467 11.9034C109.278 11.4223 108.998 11.0455 108.626 10.7727C108.255 10.5 107.797 10.3636 107.251 10.3636C106.683 10.3636 106.21 10.5076 105.831 10.7955C105.456 11.0833 105.174 11.4697 104.984 11.9545C104.799 12.4394 104.706 12.9773 104.706 13.5682C104.706 14.1742 104.801 14.7102 104.99 15.1761C105.183 15.6383 105.467 16.0019 105.842 16.267C106.221 16.5284 106.691 16.6591 107.251 16.6591ZM117.183 18.1818C116.342 18.1818 115.617 17.9962 115.007 17.625C114.401 17.25 113.933 16.7273 113.604 16.0568C113.278 15.3826 113.115 14.5985 113.115 13.7045C113.115 12.8106 113.278 12.0227 113.604 11.3409C113.933 10.6553 114.392 10.1212 114.979 9.73864C115.57 9.35227 116.259 9.15909 117.047 9.15909C117.501 9.15909 117.95 9.23485 118.393 9.38636C118.837 9.53788 119.24 9.78409 119.604 10.125C119.967 10.4621 120.257 10.9091 120.473 11.4659C120.689 12.0227 120.797 12.7083 120.797 13.5227V14.0909H114.07V12.9318H119.433C119.433 12.4394 119.335 12 119.138 11.6136C118.945 11.2273 118.668 10.9223 118.308 10.6989C117.952 10.4754 117.532 10.3636 117.047 10.3636C116.513 10.3636 116.051 10.4962 115.661 10.7614C115.274 11.0227 114.977 11.3636 114.768 11.7841C114.56 12.2045 114.456 12.6553 114.456 13.1364V13.9091C114.456 14.5682 114.57 15.1269 114.797 15.5852C115.028 16.0398 115.348 16.3864 115.757 16.625C116.166 16.8598 116.642 16.9773 117.183 16.9773C117.536 16.9773 117.854 16.928 118.138 16.8295C118.426 16.7273 118.674 16.5758 118.882 16.375C119.09 16.1705 119.251 15.9167 119.365 15.6136L120.661 15.9773C120.524 16.4167 120.295 16.803 119.973 17.1364C119.651 17.4659 119.253 17.7235 118.78 17.9091C118.306 18.0909 117.774 18.1818 117.183 18.1818ZM122.837 18V9.27273H124.132V10.6364H124.246C124.428 10.1705 124.721 9.80871 125.126 9.55114C125.532 9.28977 126.018 9.15909 126.587 9.15909C127.162 9.15909 127.642 9.28977 128.024 9.55114C128.411 9.80871 128.712 10.1705 128.928 10.6364H129.018C129.242 10.1856 129.577 9.82765 130.024 9.5625C130.471 9.29356 131.007 9.15909 131.632 9.15909C132.412 9.15909 133.051 9.40341 133.547 9.89205C134.043 10.3769 134.291 11.1326 134.291 12.1591V18H132.95V12.1591C132.95 11.5152 132.774 11.0549 132.422 10.7784C132.07 10.5019 131.655 10.3636 131.178 10.3636C130.564 10.3636 130.089 10.5492 129.751 10.9205C129.414 11.2879 129.246 11.7538 129.246 12.3182V18H127.882V12.0227C127.882 11.5265 127.721 11.1269 127.399 10.8239C127.077 10.517 126.662 10.3636 126.155 10.3636C125.806 10.3636 125.481 10.4564 125.178 10.642C124.878 10.8277 124.636 11.0852 124.45 11.4148C124.268 11.7405 124.178 12.1174 124.178 12.5455V18H122.837ZM140.402 18.1818C139.561 18.1818 138.836 17.9962 138.226 17.625C137.62 17.25 137.152 16.7273 136.822 16.0568C136.497 15.3826 136.334 14.5985 136.334 13.7045C136.334 12.8106 136.497 12.0227 136.822 11.3409C137.152 10.6553 137.61 10.1212 138.197 9.73864C138.788 9.35227 139.478 9.15909 140.266 9.15909C140.72 9.15909 141.169 9.23485 141.612 9.38636C142.055 9.53788 142.459 9.78409 142.822 10.125C143.186 10.4621 143.476 10.9091 143.692 11.4659C143.908 12.0227 144.016 12.7083 144.016 13.5227V14.0909H137.288V12.9318H142.652C142.652 12.4394 142.554 12 142.357 11.6136C142.163 11.2273 141.887 10.9223 141.527 10.6989C141.171 10.4754 140.75 10.3636 140.266 10.3636C139.732 10.3636 139.269 10.4962 138.879 10.7614C138.493 11.0227 138.196 11.3636 137.987 11.7841C137.779 12.2045 137.675 12.6553 137.675 13.1364V13.9091C137.675 14.5682 137.788 15.1269 138.016 15.5852C138.247 16.0398 138.567 16.3864 138.976 16.625C139.385 16.8598 139.86 16.9773 140.402 16.9773C140.754 16.9773 141.072 16.928 141.357 16.8295C141.644 16.7273 141.893 16.5758 142.101 16.375C142.309 16.1705 142.47 15.9167 142.584 15.6136L143.879 15.9773C143.743 16.4167 143.514 16.803 143.192 17.1364C142.87 17.4659 142.472 17.7235 141.999 17.9091C141.525 18.0909 140.993 18.1818 140.402 18.1818ZM147.396 12.75V18H146.055V9.27273H147.351V10.6364H147.464C147.669 10.1932 147.98 9.83712 148.396 9.56818C148.813 9.29545 149.351 9.15909 150.01 9.15909C150.601 9.15909 151.118 9.2803 151.561 9.52273C152.004 9.76136 152.349 10.125 152.595 10.6136C152.841 11.0985 152.964 11.7121 152.964 12.4545V18H151.624V12.5455C151.624 11.8598 151.446 11.3258 151.089 10.9432C150.733 10.5568 150.245 10.3636 149.624 10.3636C149.196 10.3636 148.813 10.4564 148.476 10.642C148.143 10.8277 147.879 11.0985 147.686 11.4545C147.493 11.8106 147.396 12.2424 147.396 12.75ZM159.21 9.27273V10.4091H154.688V9.27273H159.21ZM156.006 7.18182H157.347V15.5C157.347 15.8788 157.402 16.1629 157.511 16.3523C157.625 16.5379 157.769 16.6629 157.943 16.7273C158.121 16.7879 158.309 16.8182 158.506 16.8182C158.653 16.8182 158.775 16.8106 158.869 16.7955C158.964 16.7765 159.04 16.7614 159.097 16.75L159.369 17.9545C159.278 17.9886 159.152 18.0227 158.989 18.0568C158.826 18.0947 158.619 18.1136 158.369 18.1136C157.991 18.1136 157.619 18.0322 157.256 17.8693C156.896 17.7064 156.597 17.4583 156.358 17.125C156.123 16.7917 156.006 16.3712 156.006 15.8636V7.18182Z" fill="#637083"/>
<circle cx="172" cy="12" r="4.5" fill="#E1FCAD" stroke="#1A332B" stroke-width="3"/>
</svg>
