<svg width="196" height="24" viewBox="0 0 196 24" fill="none" xmlns="http://www.w3.org/2000/svg">
<circle cx="6" cy="12" r="4.5" fill="#E1FCAD" stroke="#1A332B" stroke-width="3"/>
<path d="M23.6364 14.3636H25.1818L26.4773 16.0682L26.8182 16.5227L28.75 19.0909H27.2045L25.9318 17.3864L25.6136 16.9545L23.6364 14.3636ZM29.2273 12.1818C29.2273 13.4091 29.0057 14.4697 28.5625 15.3636C28.1193 16.2576 27.5114 16.947 26.7386 17.4318C25.9659 17.9167 25.0833 18.1591 24.0909 18.1591C23.0985 18.1591 22.2159 17.9167 21.4432 17.4318C20.6705 16.947 20.0625 16.2576 19.6193 15.3636C19.1761 14.4697 18.9545 13.4091 18.9545 12.1818C18.9545 10.9545 19.1761 9.89394 19.6193 9C20.0625 8.10606 20.6705 7.41667 21.4432 6.93182C22.2159 6.44697 23.0985 6.20455 24.0909 6.20455C25.0833 6.20455 25.9659 6.44697 26.7386 6.93182C27.5114 7.41667 28.1193 8.10606 28.5625 9C29.0057 9.89394 29.2273 10.9545 29.2273 12.1818ZM27.8636 12.1818C27.8636 11.1742 27.6951 10.3239 27.358 9.63068C27.0246 8.9375 26.572 8.41288 26 8.05682C25.4318 7.70076 24.7955 7.52273 24.0909 7.52273C23.3864 7.52273 22.7481 7.70076 22.1761 8.05682C21.608 8.41288 21.1553 8.9375 20.8182 9.63068C20.4848 10.3239 20.3182 11.1742 20.3182 12.1818C20.3182 13.1894 20.4848 14.0398 20.8182 14.733C21.1553 15.4261 21.608 15.9508 22.1761 16.3068C22.7481 16.6629 23.3864 16.8409 24.0909 16.8409C24.7955 16.8409 25.4318 16.6629 26 16.3068C26.572 15.9508 27.0246 15.4261 27.358 14.733C27.6951 14.0398 27.8636 13.1894 27.8636 12.1818ZM36.9148 14.4318V9.27273H38.2557V18H36.9148V16.5227H36.8239C36.6193 16.9659 36.3011 17.3428 35.8693 17.6534C35.4375 17.9602 34.892 18.1136 34.233 18.1136C33.6875 18.1136 33.2027 17.9943 32.7784 17.7557C32.3542 17.5133 32.0208 17.1496 31.7784 16.6648C31.536 16.1761 31.4148 15.5606 31.4148 14.8182V9.27273H32.7557V14.7273C32.7557 15.3636 32.9337 15.8712 33.2898 16.25C33.6496 16.6288 34.108 16.8182 34.6648 16.8182C34.9981 16.8182 35.3371 16.733 35.6818 16.5625C36.0303 16.392 36.322 16.1307 36.5568 15.7784C36.7955 15.4261 36.9148 14.9773 36.9148 14.4318ZM43.2798 18.2045C42.7268 18.2045 42.2249 18.1004 41.7741 17.892C41.3234 17.6799 40.9654 17.375 40.7003 16.9773C40.4351 16.5758 40.3026 16.0909 40.3026 15.5227C40.3026 15.0227 40.401 14.6174 40.598 14.3068C40.795 13.9924 41.0582 13.7462 41.3878 13.5682C41.7173 13.3902 42.081 13.2576 42.4787 13.1705C42.8802 13.0795 43.2836 13.0076 43.6889 12.9545C44.2192 12.8864 44.6491 12.8352 44.9787 12.8011C45.312 12.7633 45.5545 12.7008 45.706 12.6136C45.8613 12.5265 45.9389 12.375 45.9389 12.1591V12.1136C45.9389 11.553 45.7855 11.1174 45.4787 10.8068C45.1757 10.4962 44.7154 10.3409 44.098 10.3409C43.4579 10.3409 42.956 10.4811 42.5923 10.7614C42.2287 11.0417 41.973 11.3409 41.8253 11.6591L40.5526 11.2045C40.7798 10.6742 41.0829 10.2614 41.4616 9.96591C41.8442 9.66667 42.2609 9.45833 42.7116 9.34091C43.1662 9.2197 43.6132 9.15909 44.0526 9.15909C44.3329 9.15909 44.6548 9.19318 45.0185 9.26136C45.3859 9.32576 45.7401 9.46023 46.081 9.66477C46.4257 9.86932 46.7116 10.178 46.9389 10.5909C47.1662 11.0038 47.2798 11.5568 47.2798 12.25V18H45.9389V16.8182H45.8707C45.7798 17.0076 45.6283 17.2102 45.4162 17.4261C45.2041 17.642 44.9219 17.8258 44.5696 17.9773C44.2173 18.1288 43.7874 18.2045 43.2798 18.2045ZM43.4844 17C44.0147 17 44.4616 16.8958 44.8253 16.6875C45.1927 16.4792 45.4692 16.2102 45.6548 15.8807C45.8442 15.5511 45.9389 15.2045 45.9389 14.8409V13.6136C45.8821 13.6818 45.7571 13.7443 45.5639 13.8011C45.3745 13.8542 45.1548 13.9015 44.9048 13.9432C44.6586 13.9811 44.4181 14.0152 44.1832 14.0455C43.9522 14.072 43.7647 14.0947 43.6207 14.1136C43.2723 14.1591 42.9465 14.233 42.6435 14.3352C42.3442 14.4337 42.1018 14.5833 41.9162 14.7841C41.7344 14.9811 41.6435 15.25 41.6435 15.5909C41.6435 16.0568 41.8158 16.4091 42.1605 16.6477C42.509 16.8826 42.9503 17 43.4844 17ZM51.0682 6.36364V18H49.7273V6.36364H51.0682ZM53.5241 18V9.27273H54.8651V18H53.5241ZM54.206 7.81818C53.9446 7.81818 53.7192 7.72917 53.5298 7.55114C53.3442 7.37311 53.2514 7.15909 53.2514 6.90909C53.2514 6.65909 53.3442 6.44508 53.5298 6.26705C53.7192 6.08902 53.9446 6 54.206 6C54.4673 6 54.6908 6.08902 54.8764 6.26705C55.0658 6.44508 55.1605 6.65909 55.1605 6.90909C55.1605 7.15909 55.0658 7.37311 54.8764 7.55114C54.6908 7.72917 54.4673 7.81818 54.206 7.81818ZM61.2074 9.27273V10.4091H56.5028V9.27273H61.2074ZM57.9119 18V8.06818C57.9119 7.56818 58.0294 7.15151 58.2642 6.81818C58.4991 6.48485 58.804 6.23485 59.179 6.06818C59.554 5.90151 59.9498 5.81818 60.3665 5.81818C60.696 5.81818 60.965 5.8447 61.1733 5.89773C61.3816 5.95076 61.5369 6 61.6392 6.04545L61.2528 7.20455C61.1847 7.18182 61.09 7.15341 60.9688 7.11932C60.8513 7.08523 60.696 7.06818 60.5028 7.06818C60.0597 7.06818 59.7396 7.17992 59.5426 7.40341C59.3494 7.62689 59.2528 7.95455 59.2528 8.38636V18H57.9119ZM63.0866 18V9.27273H64.4276V18H63.0866ZM63.7685 7.81818C63.5071 7.81818 63.2817 7.72917 63.0923 7.55114C62.9067 7.37311 62.8139 7.15909 62.8139 6.90909C62.8139 6.65909 62.9067 6.44508 63.0923 6.26705C63.2817 6.08902 63.5071 6 63.7685 6C64.0298 6 64.2533 6.08902 64.4389 6.26705C64.6283 6.44508 64.723 6.65909 64.723 6.90909C64.723 7.15909 64.6283 7.37311 64.4389 7.55114C64.2533 7.72917 64.0298 7.81818 63.7685 7.81818ZM70.429 18.1818C69.6108 18.1818 68.9063 17.9886 68.3153 17.6023C67.7244 17.2159 67.2699 16.6837 66.9517 16.0057C66.6335 15.3277 66.4744 14.553 66.4744 13.6818C66.4744 12.7955 66.6373 12.0133 66.9631 11.3352C67.2926 10.6534 67.7509 10.1212 68.3381 9.73864C68.929 9.35227 69.6184 9.15909 70.4062 9.15909C71.0199 9.15909 71.5729 9.27273 72.0653 9.5C72.5578 9.72727 72.9612 10.0455 73.2756 10.4545C73.59 10.8636 73.785 11.3409 73.8608 11.8864H72.5199C72.4176 11.4886 72.1903 11.1364 71.8381 10.8295C71.4896 10.5189 71.0199 10.3636 70.429 10.3636C69.9063 10.3636 69.4479 10.5 69.054 10.7727C68.6638 11.0417 68.3589 11.4223 68.1392 11.9148C67.9233 12.4034 67.8153 12.9773 67.8153 13.6364C67.8153 14.3106 67.9214 14.8977 68.1335 15.3977C68.3494 15.8977 68.6525 16.286 69.0426 16.5625C69.4366 16.839 69.8987 16.9773 70.429 16.9773C70.7775 16.9773 71.0938 16.9167 71.3778 16.7955C71.6619 16.6742 71.9025 16.5 72.0994 16.2727C72.2964 16.0455 72.4366 15.7727 72.5199 15.4545H73.8608C73.785 15.9697 73.5975 16.4337 73.2983 16.8466C73.0028 17.2557 72.6108 17.5814 72.1222 17.8239C71.6373 18.0625 71.0729 18.1818 70.429 18.1818ZM78.3892 18.2045C77.8362 18.2045 77.3343 18.1004 76.8835 17.892C76.4328 17.6799 76.0748 17.375 75.8097 16.9773C75.5445 16.5758 75.4119 16.0909 75.4119 15.5227C75.4119 15.0227 75.5104 14.6174 75.7074 14.3068C75.9044 13.9924 76.1676 13.7462 76.4972 13.5682C76.8267 13.3902 77.1903 13.2576 77.5881 13.1705C77.9896 13.0795 78.393 13.0076 78.7983 12.9545C79.3286 12.8864 79.7585 12.8352 80.0881 12.8011C80.4214 12.7633 80.6638 12.7008 80.8153 12.6136C80.9706 12.5265 81.0483 12.375 81.0483 12.1591V12.1136C81.0483 11.553 80.8949 11.1174 80.5881 10.8068C80.285 10.4962 79.8248 10.3409 79.2074 10.3409C78.5672 10.3409 78.0653 10.4811 77.7017 10.7614C77.3381 11.0417 77.0824 11.3409 76.9347 11.6591L75.6619 11.2045C75.8892 10.6742 76.1922 10.2614 76.571 9.96591C76.9536 9.66667 77.3703 9.45833 77.821 9.34091C78.2756 9.2197 78.7225 9.15909 79.1619 9.15909C79.4422 9.15909 79.7642 9.19318 80.1278 9.26136C80.4953 9.32576 80.8494 9.46023 81.1903 9.66477C81.535 9.86932 81.821 10.178 82.0483 10.5909C82.2756 11.0038 82.3892 11.5568 82.3892 12.25V18H81.0483V16.8182H80.9801C80.8892 17.0076 80.7377 17.2102 80.5256 17.4261C80.3134 17.642 80.0313 17.8258 79.679 17.9773C79.3267 18.1288 78.8968 18.2045 78.3892 18.2045ZM78.5938 17C79.1241 17 79.571 16.8958 79.9347 16.6875C80.3021 16.4792 80.5786 16.2102 80.7642 15.8807C80.9536 15.5511 81.0483 15.2045 81.0483 14.8409V13.6136C80.9915 13.6818 80.8665 13.7443 80.6733 13.8011C80.4839 13.8542 80.2642 13.9015 80.0142 13.9432C79.768 13.9811 79.5275 14.0152 79.2926 14.0455C79.0616 14.072 78.8741 14.0947 78.7301 14.1136C78.3816 14.1591 78.0559 14.233 77.7528 14.3352C77.4536 14.4337 77.2112 14.5833 77.0256 14.7841C76.8438 14.9811 76.7528 15.25 76.7528 15.5909C76.7528 16.0568 76.9252 16.4091 77.2699 16.6477C77.6184 16.8826 78.0597 17 78.5938 17ZM88.6321 9.27273V10.4091H84.1094V9.27273H88.6321ZM85.4276 7.18182H86.7685V15.5C86.7685 15.8788 86.8234 16.1629 86.9332 16.3523C87.0469 16.5379 87.1908 16.6629 87.3651 16.7273C87.5431 16.7879 87.7306 16.8182 87.9276 16.8182C88.0753 16.8182 88.1965 16.8106 88.2912 16.7955C88.3859 16.7765 88.4616 16.7614 88.5185 16.75L88.7912 17.9545C88.7003 17.9886 88.5734 18.0227 88.4105 18.0568C88.2476 18.0947 88.0412 18.1136 87.7912 18.1136C87.4124 18.1136 87.0412 18.0322 86.6776 17.8693C86.3177 17.7064 86.0185 17.4583 85.7798 17.125C85.545 16.7917 85.4276 16.3712 85.4276 15.8636V7.18182ZM90.6491 18V9.27273H91.9901V18H90.6491ZM91.331 7.81818C91.0696 7.81818 90.8442 7.72917 90.6548 7.55114C90.4692 7.37311 90.3764 7.15909 90.3764 6.90909C90.3764 6.65909 90.4692 6.44508 90.6548 6.26705C90.8442 6.08902 91.0696 6 91.331 6C91.5923 6 91.8158 6.08902 92.0014 6.26705C92.1908 6.44508 92.2855 6.65909 92.2855 6.90909C92.2855 7.15909 92.1908 7.37311 92.0014 7.55114C91.8158 7.72917 91.5923 7.81818 91.331 7.81818ZM97.9915 18.1818C97.2036 18.1818 96.5123 17.9943 95.9176 17.6193C95.3267 17.2443 94.8646 16.7197 94.5312 16.0455C94.2017 15.3712 94.0369 14.5833 94.0369 13.6818C94.0369 12.7727 94.2017 11.9792 94.5312 11.3011C94.8646 10.6231 95.3267 10.0966 95.9176 9.72159C96.5123 9.34659 97.2036 9.15909 97.9915 9.15909C98.7794 9.15909 99.4688 9.34659 100.06 9.72159C100.654 10.0966 101.116 10.6231 101.446 11.3011C101.779 11.9792 101.946 12.7727 101.946 13.6818C101.946 14.5833 101.779 15.3712 101.446 16.0455C101.116 16.7197 100.654 17.2443 100.06 17.6193C99.4688 17.9943 98.7794 18.1818 97.9915 18.1818ZM97.9915 16.9773C98.59 16.9773 99.0824 16.8239 99.4688 16.517C99.8551 16.2102 100.141 15.8068 100.327 15.3068C100.512 14.8068 100.605 14.2652 100.605 13.6818C100.605 13.0985 100.512 12.5549 100.327 12.0511C100.141 11.5473 99.8551 11.1402 99.4688 10.8295C99.0824 10.5189 98.59 10.3636 97.9915 10.3636C97.393 10.3636 96.9006 10.5189 96.5142 10.8295C96.1278 11.1402 95.8419 11.5473 95.6562 12.0511C95.4706 12.5549 95.3778 13.0985 95.3778 13.6818C95.3778 14.2652 95.4706 14.8068 95.6562 15.3068C95.8419 15.8068 96.1278 16.2102 96.5142 16.517C96.9006 16.8239 97.393 16.9773 97.9915 16.9773ZM105.334 12.75V18H103.993V9.27273H105.288V10.6364H105.402C105.607 10.1932 105.917 9.83712 106.334 9.56818C106.75 9.29545 107.288 9.15909 107.947 9.15909C108.538 9.15909 109.055 9.2803 109.499 9.52273C109.942 9.76136 110.286 10.125 110.533 10.6136C110.779 11.0985 110.902 11.7121 110.902 12.4545V18H109.561V12.5455C109.561 11.8598 109.383 11.3258 109.027 10.9432C108.671 10.5568 108.182 10.3636 107.561 10.3636C107.133 10.3636 106.75 10.4564 106.413 10.642C106.08 10.8277 105.817 11.0985 105.624 11.4545C105.43 11.8106 105.334 12.2424 105.334 12.75ZM121.148 18.1591C120.383 18.1591 119.723 18.0189 119.17 17.7386C118.617 17.4583 118.191 17.0739 117.892 16.5852C117.593 16.0966 117.443 15.5379 117.443 14.9091C117.443 14.4242 117.545 13.9943 117.75 13.6193C117.958 13.2405 118.244 12.8902 118.608 12.5682C118.975 12.2424 119.398 11.9167 119.875 11.5909L121.557 10.3409C121.886 10.125 122.15 9.89394 122.347 9.64773C122.547 9.40152 122.648 9.07955 122.648 8.68182C122.648 8.38636 122.517 8.10038 122.256 7.82386C121.998 7.54735 121.659 7.40909 121.239 7.40909C120.943 7.40909 120.682 7.48485 120.455 7.63636C120.231 7.78409 120.055 7.97348 119.926 8.20455C119.801 8.43182 119.739 8.66667 119.739 8.90909C119.739 9.18182 119.813 9.45833 119.96 9.73864C120.112 10.0152 120.303 10.2992 120.534 10.5909C120.769 10.8788 121.011 11.1742 121.261 11.4773L126.602 18H124.989L120.58 12.6818C120.17 12.1894 119.799 11.7424 119.466 11.3409C119.133 10.9394 118.867 10.5436 118.67 10.1534C118.473 9.76326 118.375 9.34091 118.375 8.88636C118.375 8.36364 118.491 7.9053 118.722 7.51136C118.956 7.11364 119.284 6.80492 119.705 6.58523C120.129 6.36174 120.625 6.25 121.193 6.25C121.777 6.25 122.278 6.36364 122.699 6.59091C123.119 6.81439 123.443 7.11174 123.67 7.48295C123.898 7.85038 124.011 8.25 124.011 8.68182C124.011 9.23864 123.873 9.72159 123.597 10.1307C123.32 10.5398 122.943 10.9205 122.466 11.2727L120.148 13C119.625 13.3864 119.271 13.7614 119.085 14.125C118.9 14.4886 118.807 14.75 118.807 14.9091C118.807 15.2727 118.902 15.6117 119.091 15.9261C119.28 16.2405 119.547 16.4943 119.892 16.6875C120.237 16.8807 120.64 16.9773 121.102 16.9773C121.542 16.9773 121.97 16.8845 122.386 16.6989C122.803 16.5095 123.18 16.2367 123.517 15.8807C123.858 15.5246 124.127 15.0966 124.324 14.5966C124.525 14.0966 124.625 13.5341 124.625 12.9091H125.92C125.92 13.6818 125.831 14.3125 125.653 14.8011C125.475 15.2898 125.275 15.6723 125.051 15.9489C124.828 16.2254 124.648 16.4318 124.511 16.5682C124.466 16.625 124.424 16.6818 124.386 16.7386C124.348 16.7955 124.307 16.8523 124.261 16.9091C123.886 17.3295 123.413 17.6439 122.841 17.8523C122.269 18.0568 121.705 18.1591 121.148 18.1591ZM136.359 18H132.768V6.36364H136.518C137.647 6.36364 138.613 6.59659 139.416 7.0625C140.219 7.52462 140.835 8.18939 141.263 9.05682C141.691 9.92045 141.905 10.9545 141.905 12.1591C141.905 13.3712 141.689 14.4148 141.257 15.2898C140.825 16.161 140.196 16.8314 139.371 17.3011C138.545 17.767 137.541 18 136.359 18ZM134.178 16.75H136.268C137.231 16.75 138.028 16.5644 138.661 16.1932C139.293 15.822 139.765 15.2936 140.075 14.608C140.386 13.9223 140.541 13.1061 140.541 12.1591C140.541 11.2197 140.388 10.411 140.081 9.73295C139.774 9.05114 139.316 8.52841 138.706 8.16477C138.096 7.79735 137.337 7.61364 136.428 7.61364H134.178V16.75ZM147.746 18.1818C146.905 18.1818 146.179 17.9962 145.57 17.625C144.964 17.25 144.496 16.7273 144.166 16.0568C143.84 15.3826 143.678 14.5985 143.678 13.7045C143.678 12.8106 143.84 12.0227 144.166 11.3409C144.496 10.6553 144.954 10.1212 145.541 9.73864C146.132 9.35227 146.821 9.15909 147.609 9.15909C148.064 9.15909 148.513 9.23485 148.956 9.38636C149.399 9.53788 149.803 9.78409 150.166 10.125C150.53 10.4621 150.82 10.9091 151.036 11.4659C151.251 12.0227 151.359 12.7083 151.359 13.5227V14.0909H144.632V12.9318H149.996C149.996 12.4394 149.897 12 149.7 11.6136C149.507 11.2273 149.231 10.9223 148.871 10.6989C148.515 10.4754 148.094 10.3636 147.609 10.3636C147.075 10.3636 146.613 10.4962 146.223 10.7614C145.837 11.0227 145.539 11.3636 145.331 11.7841C145.123 12.2045 145.018 12.6553 145.018 13.1364V13.9091C145.018 14.5682 145.132 15.1269 145.359 15.5852C145.59 16.0398 145.911 16.3864 146.32 16.625C146.729 16.8598 147.204 16.9773 147.746 16.9773C148.098 16.9773 148.416 16.928 148.7 16.8295C148.988 16.7273 149.236 16.5758 149.445 16.375C149.653 16.1705 149.814 15.9167 149.928 15.6136L151.223 15.9773C151.087 16.4167 150.857 16.803 150.536 17.1364C150.214 17.4659 149.816 17.7235 149.342 17.9091C148.869 18.0909 148.337 18.1818 147.746 18.1818ZM156.945 18.1818C156.126 18.1818 155.422 17.9886 154.831 17.6023C154.24 17.2159 153.786 16.6837 153.467 16.0057C153.149 15.3277 152.99 14.553 152.99 13.6818C152.99 12.7955 153.153 12.0133 153.479 11.3352C153.808 10.6534 154.267 10.1212 154.854 9.73864C155.445 9.35227 156.134 9.15909 156.922 9.15909C157.536 9.15909 158.089 9.27273 158.581 9.5C159.073 9.72727 159.477 10.0455 159.791 10.4545C160.106 10.8636 160.301 11.3409 160.376 11.8864H159.036C158.933 11.4886 158.706 11.1364 158.354 10.8295C158.005 10.5189 157.536 10.3636 156.945 10.3636C156.422 10.3636 155.964 10.5 155.57 10.7727C155.179 11.0417 154.875 11.4223 154.655 11.9148C154.439 12.4034 154.331 12.9773 154.331 13.6364C154.331 14.3106 154.437 14.8977 154.649 15.3977C154.865 15.8977 155.168 16.286 155.558 16.5625C155.952 16.839 156.414 16.9773 156.945 16.9773C157.293 16.9773 157.609 16.9167 157.893 16.7955C158.178 16.6742 158.418 16.5 158.615 16.2727C158.812 16.0455 158.952 15.7727 159.036 15.4545H160.376C160.301 15.9697 160.113 16.4337 159.814 16.8466C159.518 17.2557 159.126 17.5814 158.638 17.8239C158.153 18.0625 157.589 18.1818 156.945 18.1818ZM162.337 18V9.27273H163.678V18H162.337ZM163.018 7.81818C162.757 7.81818 162.532 7.72917 162.342 7.55114C162.157 7.37311 162.064 7.15909 162.064 6.90909C162.064 6.65909 162.157 6.44508 162.342 6.26705C162.532 6.08902 162.757 6 163.018 6C163.28 6 163.503 6.08902 163.689 6.26705C163.878 6.44508 163.973 6.65909 163.973 6.90909C163.973 7.15909 163.878 7.37311 163.689 7.55114C163.503 7.72917 163.28 7.81818 163.018 7.81818ZM172.315 11.2273L171.111 11.5682C171.035 11.3674 170.923 11.1723 170.776 10.983C170.632 10.7898 170.435 10.6307 170.185 10.5057C169.935 10.3807 169.615 10.3182 169.224 10.3182C168.69 10.3182 168.245 10.4413 167.889 10.6875C167.537 10.9299 167.361 11.2386 167.361 11.6136C167.361 11.947 167.482 12.2102 167.724 12.4034C167.967 12.5966 168.346 12.7576 168.861 12.8864L170.156 13.2045C170.937 13.3939 171.518 13.6837 171.901 14.0739C172.283 14.4602 172.474 14.9583 172.474 15.5682C172.474 16.0682 172.33 16.5152 172.043 16.9091C171.759 17.303 171.361 17.6136 170.849 17.8409C170.338 18.0682 169.743 18.1818 169.065 18.1818C168.175 18.1818 167.438 17.9886 166.855 17.6023C166.272 17.2159 165.902 16.6515 165.747 15.9091L167.02 15.5909C167.141 16.0606 167.37 16.4129 167.707 16.6477C168.048 16.8826 168.493 17 169.043 17C169.668 17 170.164 16.8674 170.531 16.6023C170.902 16.3333 171.088 16.0114 171.088 15.6364C171.088 15.3333 170.982 15.0795 170.77 14.875C170.558 14.6667 170.232 14.5114 169.793 14.4091L168.338 14.0682C167.539 13.8788 166.952 13.5852 166.577 13.1875C166.205 12.786 166.02 12.2841 166.02 11.6818C166.02 11.1894 166.158 10.7538 166.435 10.375C166.715 9.99621 167.096 9.69886 167.577 9.48295C168.062 9.26705 168.611 9.15909 169.224 9.15909C170.088 9.15909 170.766 9.34848 171.259 9.72727C171.755 10.1061 172.107 10.6061 172.315 11.2273ZM174.493 18V9.27273H175.834V18H174.493ZM175.175 7.81818C174.913 7.81818 174.688 7.72917 174.499 7.55114C174.313 7.37311 174.22 7.15909 174.22 6.90909C174.22 6.65909 174.313 6.44508 174.499 6.26705C174.688 6.08902 174.913 6 175.175 6C175.436 6 175.66 6.08902 175.845 6.26705C176.035 6.44508 176.129 6.65909 176.129 6.90909C176.129 7.15909 176.035 7.37311 175.845 7.55114C175.66 7.72917 175.436 7.81818 175.175 7.81818ZM181.835 18.1818C181.047 18.1818 180.356 17.9943 179.761 17.6193C179.17 17.2443 178.708 16.7197 178.375 16.0455C178.045 15.3712 177.881 14.5833 177.881 13.6818C177.881 12.7727 178.045 11.9792 178.375 11.3011C178.708 10.6231 179.17 10.0966 179.761 9.72159C180.356 9.34659 181.047 9.15909 181.835 9.15909C182.623 9.15909 183.313 9.34659 183.903 9.72159C184.498 10.0966 184.96 10.6231 185.29 11.3011C185.623 11.9792 185.79 12.7727 185.79 13.6818C185.79 14.5833 185.623 15.3712 185.29 16.0455C184.96 16.7197 184.498 17.2443 183.903 17.6193C183.313 17.9943 182.623 18.1818 181.835 18.1818ZM181.835 16.9773C182.434 16.9773 182.926 16.8239 183.312 16.517C183.699 16.2102 183.985 15.8068 184.17 15.3068C184.356 14.8068 184.449 14.2652 184.449 13.6818C184.449 13.0985 184.356 12.5549 184.17 12.0511C183.985 11.5473 183.699 11.1402 183.312 10.8295C182.926 10.5189 182.434 10.3636 181.835 10.3636C181.237 10.3636 180.744 10.5189 180.358 10.8295C179.972 11.1402 179.686 11.5473 179.5 12.0511C179.314 12.5549 179.222 13.0985 179.222 13.6818C179.222 14.2652 179.314 14.8068 179.5 15.3068C179.686 15.8068 179.972 16.2102 180.358 16.517C180.744 16.8239 181.237 16.9773 181.835 16.9773ZM189.178 12.75V18H187.837V9.27273H189.132V10.6364H189.246C189.45 10.1932 189.761 9.83712 190.178 9.56818C190.594 9.29545 191.132 9.15909 191.791 9.15909C192.382 9.15909 192.899 9.2803 193.342 9.52273C193.786 9.76136 194.13 10.125 194.376 10.6136C194.623 11.0985 194.746 11.7121 194.746 12.4545V18H193.405V12.5455C193.405 11.8598 193.227 11.3258 192.871 10.9432C192.515 10.5568 192.026 10.3636 191.405 10.3636C190.977 10.3636 190.594 10.4564 190.257 10.642C189.924 10.8277 189.661 11.0985 189.467 11.4545C189.274 11.8106 189.178 12.2424 189.178 12.75Z" fill="#637083"/>
</svg>
